<svg xmlns="http://www.w3.org/2000/svg" xmlns:xlink="http://www.w3.org/1999/xlink" width="500" zoomAndPan="magnify" viewBox="0 0 375 374.999991" height="500" preserveAspectRatio="xMidYMid meet" version="1.0"><defs><clipPath id="25b6018a7b"><path d="M 62 101.050781 L 313 101.050781 L 313 257.050781 L 62 257.050781 Z M 62 101.050781 " clip-rule="nonzero"/></clipPath><clipPath id="9961afb7a4"><path d="M 61 118 L 128 118 L 128 183 L 61 183 Z M 61 118 " clip-rule="nonzero"/></clipPath><clipPath id="5f1a084ee1"><path d="M 3.429688 155.289062 L 50.523438 53.121094 L 141.792969 95.191406 L 94.699219 197.359375 Z M 3.429688 155.289062 " clip-rule="nonzero"/></clipPath><clipPath id="b7e9c35a19"><path d="M 3.429688 155.289062 L 50.523438 53.121094 L 141.792969 95.191406 L 94.699219 197.359375 Z M 3.429688 155.289062 " clip-rule="nonzero"/></clipPath><clipPath id="a33bebbabb"><path d="M 3.429688 155.289062 L 50.523438 53.121094 L 141.792969 95.191406 L 94.699219 197.359375 Z M 3.429688 155.289062 " clip-rule="nonzero"/></clipPath><clipPath id="ce64607098"><path d="M 73 67 L 88 67 L 88 111 L 73 111 Z M 73 67 " clip-rule="nonzero"/></clipPath><clipPath id="efac712ccd"><path d="M 3.429688 155.289062 L 50.523438 53.121094 L 141.792969 95.191406 L 94.699219 197.359375 Z M 3.429688 155.289062 " clip-rule="nonzero"/></clipPath><clipPath id="79cefacd34"><path d="M 3.429688 155.289062 L 50.523438 53.121094 L 141.792969 95.191406 L 94.699219 197.359375 Z M 3.429688 155.289062 " clip-rule="nonzero"/></clipPath><clipPath id="5b540ae3c3"><path d="M 3.429688 155.289062 L 50.523438 53.121094 L 141.792969 95.191406 L 94.699219 197.359375 Z M 3.429688 155.289062 " clip-rule="nonzero"/></clipPath><clipPath id="da35e8846e"><path d="M 34 88 L 67 88 L 67 122 L 34 122 Z M 34 88 " clip-rule="nonzero"/></clipPath><clipPath id="ccf2e28a0d"><path d="M 3.429688 155.289062 L 50.523438 53.121094 L 141.792969 95.191406 L 94.699219 197.359375 Z M 3.429688 155.289062 " clip-rule="nonzero"/></clipPath><clipPath id="b0214644a9"><path d="M 3.429688 155.289062 L 50.523438 53.121094 L 141.792969 95.191406 L 94.699219 197.359375 Z M 3.429688 155.289062 " clip-rule="nonzero"/></clipPath><clipPath id="b2af4b75ef"><path d="M 3.429688 155.289062 L 50.523438 53.121094 L 141.792969 95.191406 L 94.699219 197.359375 Z M 3.429688 155.289062 " clip-rule="nonzero"/></clipPath><clipPath id="c77cfae6e9"><path d="M 18 123 L 56 123 L 56 142 L 18 142 Z M 18 123 " clip-rule="nonzero"/></clipPath><clipPath id="452b271166"><path d="M 3.429688 155.289062 L 50.523438 53.121094 L 141.792969 95.191406 L 94.699219 197.359375 Z M 3.429688 155.289062 " clip-rule="nonzero"/></clipPath><clipPath id="20bda2d030"><path d="M 3.429688 155.289062 L 50.523438 53.121094 L 141.792969 95.191406 L 94.699219 197.359375 Z M 3.429688 155.289062 " clip-rule="nonzero"/></clipPath><clipPath id="085a7fa860"><path d="M 3.429688 155.289062 L 50.523438 53.121094 L 141.792969 95.191406 L 94.699219 197.359375 Z M 3.429688 155.289062 " clip-rule="nonzero"/></clipPath><clipPath id="b9a8c126eb"><path d="M 108 83 L 117 83 L 117 108 L 108 108 Z M 108 83 " clip-rule="nonzero"/></clipPath><clipPath id="73d9d3bf83"><path d="M 3.429688 155.289062 L 50.523438 53.121094 L 141.792969 95.191406 L 94.699219 197.359375 Z M 3.429688 155.289062 " clip-rule="nonzero"/></clipPath><clipPath id="542cc7425e"><path d="M 3.429688 155.289062 L 50.523438 53.121094 L 141.792969 95.191406 L 94.699219 197.359375 Z M 3.429688 155.289062 " clip-rule="nonzero"/></clipPath><clipPath id="023b5c3e9f"><path d="M 3.429688 155.289062 L 50.523438 53.121094 L 141.792969 95.191406 L 94.699219 197.359375 Z M 3.429688 155.289062 " clip-rule="nonzero"/></clipPath><clipPath id="b0bd528b76"><path d="M 24 157 L 49 157 L 49 162 L 24 162 Z M 24 157 " clip-rule="nonzero"/></clipPath><clipPath id="e79e84d231"><path d="M 3.429688 155.289062 L 50.523438 53.121094 L 141.792969 95.191406 L 94.699219 197.359375 Z M 3.429688 155.289062 " clip-rule="nonzero"/></clipPath><clipPath id="470895f55e"><path d="M 3.429688 155.289062 L 50.523438 53.121094 L 141.792969 95.191406 L 94.699219 197.359375 Z M 3.429688 155.289062 " clip-rule="nonzero"/></clipPath><clipPath id="e5004ece6f"><path d="M 3.429688 155.289062 L 50.523438 53.121094 L 141.792969 95.191406 L 94.699219 197.359375 Z M 3.429688 155.289062 " clip-rule="nonzero"/></clipPath></defs><g clip-path="url(#25b6018a7b)"><path fill="#000000" d="M 64.890625 155.679688 C 64.890625 155.679688 178.769531 103.824219 196.316406 102.453125 C 213.863281 101.078125 214.035156 102.109375 228.660156 105.027344 C 243.28125 107.945312 274.675781 117.90625 276.738281 118.847656 C 278.800781 119.796875 279.574219 124.6875 278.285156 124.6875 C 276.996094 124.6875 261.6875 124.429688 262.289062 125.800781 C 262.890625 127.179688 280.949219 130.4375 282.070312 131.125 C 283.1875 131.8125 283.976562 134.417969 281.914062 134.332031 C 279.847656 134.246094 262.539062 132.214844 262.203125 133.441406 C 262.109375 133.769531 262.140625 135.359375 264.417969 136.183594 C 270.675781 138.445312 283.160156 139.753906 284.183594 140.378906 C 285.582031 141.226562 286.492188 143.457031 285.976562 143.714844 C 285.460938 143.972656 266.28125 143.371094 265.160156 143.714844 C 264.046875 144.058594 263.578125 147.351562 263.578125 147.351562 C 263.578125 147.351562 288.691406 151.730469 290.242188 153.019531 C 291.789062 154.304688 289.898438 155.59375 289.898438 155.59375 C 289.898438 155.59375 248.097656 153.277344 245.859375 153.875 C 243.625 154.476562 244.226562 156.277344 244.226562 156.277344 C 244.226562 156.277344 276.566406 159.714844 284.910156 161.6875 C 293.253906 163.664062 293.769531 165.980469 293.769531 166.582031 C 293.769531 167.183594 251.625 166.582031 247.578125 167.011719 C 243.539062 167.441406 244.226562 169.328125 244.226562 169.328125 C 244.226562 169.328125 284.308594 173.277344 289.8125 174.652344 C 295.316406 176.027344 295.230469 178.515625 295.230469 178.515625 C 295.230469 178.515625 264.09375 178.257812 256.4375 178.773438 C 248.785156 179.285156 246.804688 181.519531 246.71875 182.207031 C 246.632812 182.894531 282.414062 185.640625 287.832031 186.242188 C 293.253906 186.839844 295.746094 188.128906 296.433594 188.902344 C 297.121094 189.675781 297.207031 190.191406 297.207031 190.191406 C 297.207031 190.191406 260.828125 190.792969 255.835938 190.878906 C 250.847656 190.964844 250.417969 194.566406 250.417969 194.566406 C 250.417969 194.566406 291.394531 197.074219 294.664062 198.019531 C 297.929688 198.964844 298.5 201.351562 298.5 201.351562 C 298.5 201.351562 257.710938 203.332031 256.503906 204.019531 C 253.636719 205.652344 264.546875 206.675781 269.335938 206.738281 C 280.296875 206.886719 299.484375 207.078125 300.21875 206.589844 C 301.25 205.902344 301.59375 204.871094 301.59375 204.871094 C 301.59375 204.871094 300.734375 172.074219 294.199219 150.957031 C 287.660156 129.839844 282.328125 123.828125 282.328125 123.828125 C 282.328125 123.828125 284.078125 125.355469 286.5625 128.6875 C 286.5625 128.6875 300.21875 129.066406 305.984375 134.132812 C 311.742188 139.195312 312.777344 153.359375 312.945312 153.960938 C 313.121094 154.5625 303.359375 155.679688 302.414062 154.90625 C 301.46875 154.132812 299.144531 139.839844 299.53125 139.195312 C 299.917969 138.554688 301.207031 140.527344 302.15625 144.003906 C 303.101562 147.480469 303.574219 150.828125 304.734375 151.6875 C 305.898438 152.542969 308.949219 151.730469 308.949219 151.730469 C 308.949219 151.730469 307.316406 141.128906 304.175781 137.050781 C 301.035156 132.972656 292.777344 133.699219 292.261719 133.828125 C 291.921875 133.914062 291.46875 135.121094 291.203125 135.929688 C 294.511719 141.914062 298.03125 150.292969 300.390625 161.429688 C 306.070312 188.214844 306.328125 205.988281 306.070312 206.757812 C 305.808594 207.53125 304.433594 211.394531 299.1875 211.566406 C 293.941406 211.738281 262.460938 213.113281 255.40625 211.050781 C 248.355469 208.992188 238.316406 198.371094 237.457031 195.105469 C 236.597656 191.84375 232.675781 159.410156 225.964844 137.261719 C 220.148438 118.054688 210.015625 104.519531 188.488281 111.035156 C 173.179688 115.671875 72.375 156.367188 64.890625 155.679688 Z M 265.382812 228.308594 C 265.382812 228.308594 299.789062 227.972656 300.734375 228.976562 C 301.679688 229.980469 287.316406 231.765625 275.449219 231.988281 C 263.578125 232.210938 266.15625 231.765625 265.382812 228.308594 Z M 264.625 222.34375 C 264.625 222.34375 299.03125 221.992188 299.976562 223.050781 C 300.921875 224.109375 286.558594 225.988281 274.691406 226.222656 C 262.820312 226.460938 265.402344 225.988281 264.625 222.34375 Z M 303.144531 225.992188 C 303.144531 225.992188 303.53125 220.796875 305.292969 217.449219 C 307.054688 214.101562 309.25 214.703125 309.25 214.703125 C 309.25 214.703125 310.195312 215.476562 310.152344 216.03125 C 310.109375 216.589844 307.3125 219.378906 306.242188 222.554688 C 305.164062 225.734375 304.519531 228.308594 303.144531 225.992188 Z M 236.886719 229.15625 C 236.886719 229.15625 236.886719 212.585938 236.886719 211.898438 C 236.886719 211.210938 245.574219 214.175781 253.316406 219.964844 C 261.054688 225.757812 260.710938 229.304688 259.679688 229.648438 C 258.648438 229.992188 251.078125 224.1875 247.039062 222.210938 C 242.992188 220.230469 241.101562 219.875 241.101562 219.875 C 241.101562 219.875 241.101562 235.242188 236.886719 229.15625 Z M 194.554688 228.996094 C 194.554688 229.613281 194.050781 230.109375 193.433594 230.109375 C 192.816406 230.109375 192.316406 229.613281 192.316406 228.996094 L 192.316406 159.144531 C 153.324219 166.050781 76.804688 179.089844 68.890625 176.542969 L 192.316406 149.097656 L 192.316406 142.664062 C 154.34375 151.460938 67.515625 171.25 67.515625 168.300781 C 67.515625 168.300781 183.425781 133.140625 201.761719 128.886719 C 199.910156 126.089844 198.058594 124.371094 196.191406 123.828125 C 189.652344 121.941406 70.269531 164.695312 66.742188 160.269531 C 66.742188 160.269531 183.71875 118.722656 190.941406 117.175781 C 198.167969 115.632812 203.84375 115.632812 210.039062 125.417969 C 216.230469 135.203125 223.066406 152.234375 227.539062 184.6875 C 230.910156 209.128906 230.808594 225.734375 230.664062 233.800781 C 230.5 242.550781 235.015625 244.523438 242.226562 244.179688 C 257.367188 243.453125 302.957031 241.113281 304.820312 239.253906 C 307.058594 237.019531 307.832031 231.441406 307.832031 231.441406 C 307.832031 231.441406 308.820312 231.226562 308.992188 232.34375 C 309.164062 233.457031 309.292969 240.457031 305.765625 242.859375 C 302.242188 245.261719 288.050781 245.953125 288.050781 245.953125 C 288.050781 245.953125 305.511719 250.070312 306.972656 251.273438 C 308.433594 252.472656 304.992188 253.847656 304.992188 253.847656 C 304.992188 253.847656 240.398438 257.023438 234.035156 257.023438 C 227.667969 257.023438 176.0625 246.378906 174.429688 245.777344 C 172.792969 245.175781 172.449219 243.375 172.449219 243.375 C 172.449219 243.375 171.933594 244.320312 169.007812 244.660156 C 166.085938 245.003906 162.300781 244.230469 160.148438 243.460938 C 158 242.6875 155.9375 239.425781 155.9375 239.425781 C 155.9375 239.425781 154.300781 240.800781 153.097656 240.800781 C 151.890625 240.800781 90.824219 228.863281 89.707031 228.605469 C 88.589844 228.347656 88.160156 227.320312 88.160156 227.320312 C 88.160156 227.320312 86.996094 228.007812 84.847656 228.007812 C 82.699219 228.007812 80.847656 227.363281 80.289062 227.019531 C 79.730469 226.679688 79.042969 225.214844 79.042969 225.214844 C 79.042969 225.214844 66.570312 223.285156 65.320312 222.601562 C 64.078125 221.910156 70.269531 221.527344 70.269531 221.527344 C 70.269531 221.527344 61.882812 217.574219 62.226562 217.019531 C 62.570312 216.460938 76.847656 218.089844 76.847656 218.089844 L 76.976562 213.582031 C 76.976562 213.582031 76.246094 204.914062 77.707031 202.765625 C 79.171875 200.621094 83.644531 199.632812 86.652344 203.109375 C 89.664062 206.585938 91.511719 221.480469 91.511719 221.480469 L 151.289062 230.453125 C 151.289062 230.453125 147.507812 207.53125 155.421875 204.011719 C 163.332031 200.492188 169.523438 204.957031 173.480469 213.285156 C 177.4375 221.609375 178.210938 235.089844 178.210938 235.089844 L 220.832031 241.265625 C 220.832031 241.265625 221.714844 217.019531 219.628906 193.542969 C 214.820312 193.566406 205.933594 193.636719 203.332031 193.878906 C 199.707031 194.222656 198.273438 193.449219 198.273438 193.449219 L 198.066406 166.753906 C 198.066406 166.753906 197.832031 163.832031 199.320312 163.144531 C 200.40625 162.644531 209.03125 161.042969 213.589844 160.214844 C 213.152344 158.617188 212.71875 157.0625 212.28125 155.5625 C 208.964844 156.164062 202.6875 157.300781 194.554688 158.746094 Z M 194.472656 142.164062 C 194.523438 142.296875 194.554688 142.4375 194.554688 142.585938 L 194.554688 148.601562 L 209.101562 145.367188 C 208.355469 143.183594 207.613281 141.152344 206.875 139.277344 C 204.253906 139.890625 199.957031 140.894531 194.472656 142.164062 Z M 79.902344 191.652344 L 186.382812 184.269531 C 186.382812 184.269531 189.230469 189.589844 186.050781 191.222656 C 182.871094 192.851562 80.675781 194.824219 79.902344 191.652344 Z M 81.753906 206.589844 C 83.339844 206.589844 84.632812 210.738281 84.632812 215.859375 C 84.632812 220.980469 83.339844 225.128906 81.753906 225.128906 C 80.160156 225.128906 78.871094 220.980469 78.871094 215.859375 C 78.871094 210.738281 80.160156 206.589844 81.753906 206.589844 Z M 163.160156 208.820312 C 166.4375 208.820312 169.09375 215.394531 169.09375 223.5 C 169.09375 231.609375 166.4375 238.179688 163.160156 238.179688 C 159.882812 238.179688 157.226562 231.609375 157.226562 223.5 C 157.226562 215.394531 159.882812 208.820312 163.160156 208.820312 Z M 227.109375 118.160156 C 227.109375 118.160156 248.179688 118.503906 253.085938 121.941406 C 257.984375 125.375 258.675781 147.609375 258.675781 147.609375 C 258.675781 147.609375 252.65625 149.027344 249.644531 146.539062 C 248.074219 145.238281 247.25 139.8125 246.285156 134.226562 C 245.402344 129.109375 244.3125 123.742188 244.3125 123.742188 C 244.3125 123.742188 229.519531 123.054688 227.109375 118.160156 Z M 241.886719 128.378906 L 242.386719 132.070312 C 242.386719 132.070312 237.476562 131.855469 236.554688 130.867188 C 236.136719 130.417969 235.601562 129.730469 236.894531 129.257812 C 238.433594 128.695312 241.886719 128.378906 241.886719 128.378906 Z M 243.382812 137.824219 L 243.882812 141.511719 C 243.882812 141.511719 238.972656 141.300781 238.050781 140.3125 C 237.632812 139.863281 237.097656 139.175781 238.390625 138.699219 C 239.925781 138.136719 243.382812 137.824219 243.382812 137.824219 Z M 243.382812 137.824219 " fill-opacity="1" fill-rule="evenodd"/></g><g clip-path="url(#9961afb7a4)"><g clip-path="url(#5f1a084ee1)"><g clip-path="url(#b7e9c35a19)"><g clip-path="url(#a33bebbabb)"><path fill="#f4b536" d="M 66.75 180.03125 C 64.117188 167.359375 66.121094 153.152344 73.578125 142.359375 C 80.652344 132.140625 92.214844 126.460938 104.109375 125.453125 C 105.863281 125.3125 107.601562 125.214844 109.359375 125.226562 C 109.511719 125.21875 110.421875 125.242188 110.003906 125.222656 C 110.441406 125.25 110.886719 125.253906 111.3125 125.300781 C 112.183594 125.355469 113.0625 125.4375 113.925781 125.558594 C 115.660156 125.785156 117.386719 126.082031 119.066406 126.480469 C 119.851562 126.667969 120.648438 126.882812 121.433594 127.121094 C 121.953125 127.285156 121.003906 126.972656 121.535156 127.167969 C 121.75 127.242188 121.941406 127.304688 122.15625 127.378906 C 122.808594 127.582031 123.421875 127.710938 124.089844 127.820312 C 125.582031 128.035156 127.0625 127.144531 127.484375 125.691406 C 127.929688 124.125 127.214844 122.820312 125.867188 122.027344 C 124.335938 121.09375 122.484375 120.691406 120.742188 120.261719 C 119.152344 119.878906 117.539062 119.558594 115.921875 119.339844 C 112.554688 118.886719 109.136719 118.757812 105.757812 118.972656 C 99.21875 119.351562 92.585938 121.238281 86.78125 124.230469 C 80.652344 127.394531 75.273438 131.785156 71.144531 137.34375 C 66.84375 143.175781 63.855469 149.8125 62.332031 156.898438 C 60.609375 164.894531 60.84375 173.0625 62.980469 180.9375 C 63.566406 183.007812 67.191406 182.207031 66.75 180.03125 Z M 66.75 180.03125 " fill-opacity="1" fill-rule="nonzero"/></g></g></g></g><g clip-path="url(#ce64607098)"><g clip-path="url(#efac712ccd)"><g clip-path="url(#79cefacd34)"><g clip-path="url(#5b540ae3c3)"><path fill="#f4b536" d="M 87.203125 107.523438 C 84.070312 94.695312 80.867188 81.859375 77.421875 69.113281 C 76.796875 66.804688 72.84375 67.675781 73.308594 70.0625 C 75.914062 83.222656 79.59375 96.101562 83.273438 108.984375 C 83.589844 110.078125 84.9375 110.597656 85.957031 110.21875 C 87.097656 109.796875 87.457031 108.640625 87.203125 107.523438 Z M 87.203125 107.523438 " fill-opacity="1" fill-rule="nonzero"/></g></g></g></g><g clip-path="url(#da35e8846e)"><g clip-path="url(#ccf2e28a0d)"><g clip-path="url(#b0214644a9)"><g clip-path="url(#b2af4b75ef)"><path fill="#f4b536" d="M 66.132812 117.382812 C 59.0625 109.707031 51.734375 102.257812 44.484375 94.75 C 42.484375 92.675781 40.394531 90.742188 38.175781 88.867188 C 36.527344 87.484375 33.996094 89.6875 35.339844 91.457031 C 38.296875 95.339844 41.644531 98.757812 45.070312 102.207031 C 48.394531 105.5625 51.699219 108.910156 55.035156 112.242188 C 57.824219 115.027344 60.617188 117.8125 63.390625 120.636719 C 64.183594 121.453125 65.667969 121.191406 66.363281 120.386719 C 67.191406 119.394531 66.90625 118.238281 66.132812 117.382812 Z M 66.132812 117.382812 " fill-opacity="1" fill-rule="nonzero"/></g></g></g></g><g clip-path="url(#c77cfae6e9)"><g clip-path="url(#452b271166)"><g clip-path="url(#20bda2d030)"><g clip-path="url(#085a7fa860)"><path fill="#f4b536" d="M 53.777344 137.503906 C 48.289062 135.121094 42.820312 132.703125 37.390625 130.25 C 34.738281 129.050781 32.082031 127.851562 29.421875 126.675781 C 26.605469 125.453125 23.742188 124.382812 20.890625 123.242188 C 18.617188 122.34375 17.195312 125.484375 19.292969 126.652344 C 21.894531 128.125 24.507812 129.628906 27.191406 130.914062 C 29.871094 132.222656 32.605469 133.460938 35.328125 134.667969 C 40.796875 137.085938 46.324219 139.386719 51.859375 141.609375 C 54.558594 142.707031 56.46875 138.667969 53.777344 137.503906 Z M 53.777344 137.503906 " fill-opacity="1" fill-rule="nonzero"/></g></g></g></g><g clip-path="url(#b9a8c126eb)"><g clip-path="url(#73d9d3bf83)"><g clip-path="url(#542cc7425e)"><g clip-path="url(#023b5c3e9f)"><path fill="#f4b536" d="M 112.855469 105.667969 C 114.289062 98.789062 115.722656 92.011719 116.453125 85.03125 C 116.601562 83.578125 114.3125 82.621094 113.800781 84.210938 C 111.640625 91.050781 110.210938 97.984375 108.773438 104.984375 C 108.234375 107.605469 112.308594 108.261719 112.855469 105.667969 Z M 112.855469 105.667969 " fill-opacity="1" fill-rule="nonzero"/></g></g></g></g><g clip-path="url(#b0bd528b76)"><g clip-path="url(#e79e84d231)"><g clip-path="url(#470895f55e)"><g clip-path="url(#e5004ece6f)"><path fill="#f4b536" d="M 46.214844 157.359375 C 39.242188 157.390625 32.328125 157.398438 25.378906 158.140625 C 23.859375 158.3125 23.648438 160.761719 25.289062 160.921875 C 32.40625 161.605469 39.46875 161.539062 46.601562 161.480469 C 47.722656 161.472656 48.554688 160.261719 48.464844 159.21875 C 48.347656 158.015625 47.335938 157.351562 46.214844 157.359375 Z M 46.214844 157.359375 " fill-opacity="1" fill-rule="nonzero"/></g></g></g></g></svg>