<?xml version="1.0" encoding="UTF-8"?>
<svg version="1.1" xmlns="http://www.w3.org/2000/svg" width="500" height="500">
<path d="M0 0 C29.25126612 -0.92035447 61.96135029 11.12802407 89.23046875 20.47265625 C89.91689453 20.70275391 90.60332031 20.93285156 91.31054688 21.16992188 C94.80522863 22.41776112 95.97711885 22.9676314 98.10546875 26.16015625 C98.10546875 28.14015625 98.10546875 30.12015625 98.10546875 32.16015625 C88.20546875 32.65515625 88.20546875 32.65515625 78.10546875 33.16015625 C86.35546875 35.14015625 94.60546875 37.12015625 103.10546875 39.16015625 C103.43546875 40.81015625 103.76546875 42.46015625 104.10546875 44.16015625 C94.70318281 44.27719715 85.47650981 44.04511122 76.10546875 43.16015625 C76.43546875 43.82015625 76.76546875 44.48015625 77.10546875 45.16015625 C79.71332005 45.90139822 82.27212423 46.52804707 84.91796875 47.09765625 C85.68246338 47.27240479 86.44695801 47.44715332 87.23461914 47.62719727 C90.75969176 48.43289652 94.28690338 49.1966714 97.83203125 49.91015625 C98.89164062 50.13703125 99.95125 50.36390625 101.04296875 50.59765625 C102.44869141 50.87416016 102.44869141 50.87416016 103.8828125 51.15625 C106.10546875 52.16015625 106.10546875 52.16015625 108.10546875 57.16015625 C98.53546875 57.16015625 88.96546875 57.16015625 79.10546875 57.16015625 C78.77546875 58.48015625 78.44546875 59.80015625 78.10546875 61.16015625 C78.91177734 61.29591064 79.71808594 61.43166504 80.54882812 61.5715332 C84.23581632 62.19706114 87.92060282 62.83475039 91.60546875 63.47265625 C92.87390625 63.68599609 94.14234375 63.89933594 95.44921875 64.11914062 C101.98841054 65.26009336 108.00065663 66.53169548 114.10546875 69.16015625 C113.77546875 70.48015625 113.44546875 71.80015625 113.10546875 73.16015625 C112.50349167 73.1351001 111.90151459 73.11004395 111.28129578 73.08422852 C104.97011125 72.82198568 98.65880133 72.56293248 92.34741211 72.30566406 C89.99744413 72.20946371 87.64750839 72.11247207 85.29760742 72.01464844 C81.90421757 71.8735272 78.51071884 71.73532828 75.1171875 71.59765625 C73.56181526 71.53203491 73.56181526 71.53203491 71.97502136 71.46508789 C65.34794449 71.19978462 58.73763796 71.10873974 52.10546875 71.16015625 C52.10546875 71.82015625 52.10546875 72.48015625 52.10546875 73.16015625 C53.5279895 73.22710693 53.5279895 73.22710693 54.97924805 73.29541016 C64.62074504 73.79651737 74.11054323 74.81155601 83.66186523 76.20703125 C85.93278285 76.53731079 88.20540747 76.85315947 90.47851562 77.16796875 C112.113826 80.23150545 112.113826 80.23150545 118.10546875 85.16015625 C117.77546875 86.15015625 117.44546875 87.14015625 117.10546875 88.16015625 C96.31546875 88.49015625 75.52546875 88.82015625 54.10546875 89.16015625 C54.10546875 89.49015625 54.10546875 89.82015625 54.10546875 90.16015625 C56.01670532 90.36378784 56.01670532 90.36378784 57.96655273 90.5715332 C62.77757831 91.08569844 67.58774226 91.6075857 72.39770508 92.1315918 C74.46389041 92.35564372 76.53029213 92.5777108 78.59692383 92.79760742 C88.70257599 93.87413771 98.7997871 94.97492436 108.828125 96.640625 C109.5146666 96.74812576 110.20120819 96.85562653 110.90855408 96.96638489 C114.66458936 97.63104468 117.3618534 98.44341784 120.10546875 101.16015625 C120.10546875 101.82015625 120.10546875 102.48015625 120.10546875 103.16015625 C118.98277588 103.1852124 117.86008301 103.21026855 116.70336914 103.23608398 C112.45199263 103.33179111 108.20071929 103.43158072 103.94946289 103.5324707 C102.12559457 103.57521386 100.30170152 103.61691711 98.4777832 103.6574707 C89.20308863 103.8643697 79.92982738 104.10358653 70.6640625 104.5703125 C69.34591553 104.63484619 68.02776855 104.69937988 66.66967773 104.76586914 C63.21574551 105.14795699 60.34316046 105.92643715 57.10546875 107.16015625 C64.95361831 108.56789191 72.77854994 109.45903664 80.71875 110.125 C81.66458954 110.20497223 82.61042908 110.28494446 83.58493042 110.36734009 C87.52843046 110.69762789 91.47222917 111.02290549 95.41723633 111.3347168 C98.33119076 111.56705947 101.2436531 111.81378961 104.15625 112.0625 C105.0366243 112.12823715 105.9169986 112.1939743 106.8240509 112.26170349 C112.39560689 112.74951708 117.02199456 113.76829381 122.10546875 116.16015625 C122.43546875 117.15015625 122.76546875 118.14015625 123.10546875 119.16015625 C122.37297409 119.17855057 121.64047943 119.19694489 120.88578796 119.21589661 C113.98440597 119.39177976 107.08353202 119.58157447 100.182971 119.78702259 C96.63523779 119.89215632 93.08752328 119.99189541 89.53930664 120.0793457 C85.46053753 120.18010802 81.38277316 120.30425949 77.3046875 120.4296875 C76.02961838 120.4579512 74.75454926 120.4862149 73.44084167 120.51533508 C72.2598439 120.55514999 71.07884613 120.5949649 69.86206055 120.63598633 C68.82059372 120.66485428 67.77912689 120.69372223 66.70610046 120.72346497 C63.80195816 121.21112096 62.88403136 121.87148117 61.10546875 124.16015625 C62.19214844 124.19753906 63.27882813 124.23492187 64.3984375 124.2734375 C75.97764288 124.72390404 87.53704583 125.47385634 99.09121704 126.34750366 C100.7637165 126.4723316 102.4365586 126.59265265 104.10971069 126.70840454 C106.49487467 126.87481271 108.87815247 127.058331 111.26171875 127.24609375 C111.97870438 127.293069 112.69569 127.34004425 113.43440247 127.38844299 C117.68318255 127.74583662 120.75927792 128.4456443 124.10546875 131.16015625 C124.10546875 132.15015625 124.10546875 133.14015625 124.10546875 134.16015625 C95.11703892 136.30317264 95.11703892 136.30317264 83.05737305 136.81811523 C78.67365215 137.01874436 74.4333303 137.47561867 70.10546875 138.16015625 C75.99204586 139.40761339 81.85759007 139.38426174 87.84765625 139.4765625 C88.97116486 139.4973436 90.09467346 139.51812469 91.25222778 139.53953552 C94.82824807 139.60472849 98.40433952 139.66377509 101.98046875 139.72265625 C104.4101635 139.76587025 106.83985115 139.80948545 109.26953125 139.85351562 C115.21476932 139.96037879 121.16007761 140.06220052 127.10546875 140.16015625 C125.8022817 112.93890964 123.82189227 86.18357762 115.10546875 60.16015625 C114.86038574 59.42732422 114.61530273 58.69449219 114.36279297 57.93945312 C111.05996757 48.26294793 106.87877464 39.19836859 102.10546875 30.16015625 C105.26662651 31.52999128 106.09817795 32.14922005 108.10546875 35.16015625 C110.656555 35.77064741 113.08266702 36.22372233 115.66796875 36.59765625 C124.28880858 38.05269891 132.1976904 39.64646339 137.82421875 46.9140625 C142.02330673 54.27526856 143.53882439 62.8021519 144.10546875 71.16015625 C140.820274 72.25522117 138.3688346 72.25976233 134.91796875 72.22265625 C133.83128906 72.21363281 132.74460937 72.20460938 131.625 72.1953125 C130.79355469 72.18371094 129.96210938 72.17210937 129.10546875 72.16015625 C126.24045622 64.81077627 125.45771784 58.01895488 125.10546875 50.16015625 C128.96337459 53.3803917 129.88049103 56.03526766 130.85546875 60.91015625 C131.0978125 62.080625 131.34015625 63.25109375 131.58984375 64.45703125 C131.84507812 65.79507813 131.84507812 65.79507813 132.10546875 67.16015625 C133.75546875 67.16015625 135.40546875 67.16015625 137.10546875 67.16015625 C136.48438285 64.76324708 135.85874509 62.36768131 135.23046875 59.97265625 C135.05644531 59.29912109 134.88242187 58.62558594 134.703125 57.93164062 C133.25977313 52.41782948 133.25977313 52.41782948 131.10546875 47.16015625 C126.15485636 44.68485005 120.55303069 44.56926169 115.10546875 44.16015625 C115.32460938 44.69640625 115.54375 45.23265625 115.76953125 45.78515625 C116.46918995 47.514394 117.15782342 49.24810493 117.83984375 50.984375 C118.69298424 53.12512568 119.57930655 55.25291141 120.49609375 57.3671875 C128.86728192 77.70036298 131.92254159 100.39074556 134.10546875 122.16015625 C134.25121338 123.51149658 134.25121338 123.51149658 134.39990234 124.89013672 C134.66990919 127.49926043 134.89636887 130.10801638 135.10546875 132.72265625 C135.18385986 133.4904541 135.26225098 134.25825195 135.34301758 135.04931641 C135.58205399 138.8356871 135.28387285 141.54654219 133.10546875 144.625 C127.10939259 149.69199665 117.62332965 148.34717252 110.08203125 148.3984375 C108.94067719 148.40650925 107.79932312 148.41458099 106.62338257 148.42289734 C104.2180124 148.43667407 101.81262322 148.44742462 99.40722656 148.45532227 C96.9595767 148.46686165 94.51195239 148.48734401 92.06445312 148.5168457 C88.50764048 148.55965565 84.95156998 148.57570721 81.39453125 148.5859375 C80.31193024 148.60344559 79.22932922 148.62095367 78.11392212 148.63899231 C66.85460109 148.60715164 59.4459717 145.20082652 51.37109375 137.46875 C44.05079582 130.00961883 41.1310831 124.54633158 39.58984375 114.1796875 C39.30881713 112.36940616 39.02738869 110.55918716 38.74560547 108.74902344 C38.6005658 107.80522827 38.45552612 106.86143311 38.30609131 105.88903809 C32.70892968 56.42017743 32.70892968 56.42017743 7.10546875 16.16015625 C-2.11661126 10.60846408 -11.93316044 11.67700977 -21.92871094 14.05371094 C-30.06786715 16.21729719 -37.90658666 19.42384464 -45.76953125 22.41015625 C-47.67792911 23.12808703 -49.58654312 23.84544346 -51.49536133 24.56225586 C-65.48513301 29.82624108 -79.43559531 35.19304329 -93.38061523 40.57421875 C-117.52195195 49.8875734 -141.69335482 59.12408756 -166.14453125 67.59765625 C-166.82546844 67.83552856 -167.50640564 68.07340088 -168.20797729 68.31848145 C-170.10628326 68.97972735 -172.0081376 69.63076037 -173.91015625 70.28125 C-174.97524414 70.64661865 -176.04033203 71.0119873 -177.13769531 71.38842773 C-179.89453125 72.16015625 -179.89453125 72.16015625 -183.89453125 72.16015625 C-183.89453125 73.81015625 -183.89453125 75.46015625 -183.89453125 77.16015625 C-165.23539742 70.80071447 -146.59967475 64.38218146 -128.01733398 57.80151367 C-126.59359588 57.29733888 -125.16984906 56.79318871 -123.74609375 56.2890625 C-123.03371048 56.03680405 -122.32132721 55.78454559 -121.58735657 55.52464294 C-111.07975268 51.80676163 -100.55618875 48.1342424 -90.03344727 44.45947266 C-81.62755755 41.52292617 -73.22654752 38.57370417 -64.8359375 35.59375 C-12.68922972 17.08331166 -12.68922972 17.08331166 -2.58203125 21.66015625 C-1.69515625 22.48515625 -0.80828125 23.31015625 0.10546875 24.16015625 C0.64300781 24.65 1.18054688 25.13984375 1.734375 25.64453125 C31.56863195 55.81250472 33.36204408 119.41446452 34.40625 159.26953125 C34.42564133 160.00570175 34.44503265 160.74187225 34.4650116 161.50035095 C34.55128976 165.02395113 34.61271405 168.54600562 34.6394043 172.07055664 C34.66901245 173.94988892 34.66901245 173.94988892 34.69921875 175.8671875 C34.70630859 176.96522705 34.71339844 178.0632666 34.72070312 179.19458008 C35.16008521 182.58111191 36.07549959 184.43454695 38.10546875 187.16015625 C41.99574427 189.75367326 45.21403667 189.43379912 49.72265625 189.37109375 C50.6017868 189.36443695 51.48091736 189.35778015 52.38668823 189.35092163 C62.6022653 189.22142448 72.79358353 188.62936834 82.98779297 187.98828125 C86.2336167 187.78495906 89.47997292 187.59300328 92.7265625 187.40234375 C102.32840412 186.82391077 111.90940899 186.17030753 121.47265625 185.12109375 C122.2104129 185.04041656 122.94816956 184.95973938 123.70828247 184.87661743 C126.65660615 184.53222685 129.27963532 184.10210073 132.10546875 183.16015625 C133.35045484 180.83745666 133.35045484 180.83745666 134.29296875 178.09765625 C134.80923828 176.71900391 134.80923828 176.71900391 135.3359375 175.3125 C135.58988281 174.60222656 135.84382813 173.89195312 136.10546875 173.16015625 C136.76546875 173.16015625 137.42546875 173.16015625 138.10546875 173.16015625 C139.57132608 177.80028018 138.64780101 181.63320264 137.10546875 186.16015625 C134.39071335 189.94142269 131.55386296 191.02625184 127.10546875 192.16015625 C124.773689 192.50418933 122.44059834 192.83964827 120.10546875 193.16015625 C119.77546875 193.49015625 119.44546875 193.82015625 119.10546875 194.16015625 C124.38546875 195.81015625 129.66546875 197.46015625 135.10546875 199.16015625 C135.10546875 200.48015625 135.10546875 201.80015625 135.10546875 203.16015625 C133.30478603 204.96083897 130.55639314 204.48405432 128.1171875 204.625 C126.81257568 204.70186035 125.50796387 204.7787207 124.16381836 204.85791016 C122.70689066 204.93822873 121.24993996 205.01813088 119.79296875 205.09765625 C118.28067856 205.18274843 116.76839019 205.26787285 115.25610352 205.35302734 C110.20648561 205.63362146 105.1561017 205.89854719 100.10546875 206.16015625 C99.20175537 206.20718689 98.29804199 206.25421753 97.36694336 206.30267334 C84.38719058 206.97477607 71.40594516 207.56293528 58.4185791 208.06652832 C56.36168439 208.14978539 54.30529828 208.24540109 52.24902344 208.34277344 C34.47165748 209.15910759 17.77508966 206.25340524 0.46203613 202.64819336 C-2.0280999 202.13249463 -4.52009405 201.62669011 -7.01269531 201.12304688 C-12.2468103 200.06489081 -17.47771968 198.99178616 -22.70703125 197.91015625 C-23.54261566 197.73798584 -24.37820007 197.56581543 -25.23910522 197.38842773 C-27.61133912 196.89693106 -29.98167917 196.39722507 -32.3515625 195.89453125 C-33.05733429 195.74888733 -33.76310608 195.60324341 -34.49026489 195.45318604 C-37.9038589 194.71939685 -40.82841041 193.82519003 -43.89453125 192.16015625 C-45.95430671 191.99344088 -45.95430671 191.99344088 -48.08203125 192.16015625 C-54.00644646 192.27727813 -59.75446679 191.97921104 -64.39453125 188.03515625 C-67.50305481 185.70376358 -69.37298498 186.17224742 -73.12649536 186.24645996 C-78.73747967 186.07151686 -84.21178521 184.77092062 -89.703125 183.67578125 C-91.03706574 183.41565272 -92.37113963 183.15620623 -93.70533752 182.8973999 C-96.49591065 182.35433856 -99.28534262 181.80587119 -102.07397461 181.25292969 C-105.59221505 180.55535014 -109.11216343 179.86694906 -112.63290119 179.18209743 C-138.93551572 174.06376367 -138.93551572 174.06376367 -150.53611755 171.31365967 C-155.30055449 170.20313888 -159.94246209 169.66122851 -164.828125 169.53125 C-166.89453125 169.16015625 -166.89453125 169.16015625 -168.16796875 167.73828125 C-170.95109387 165.19442933 -174.47535506 165.04909445 -178.08203125 164.47265625 C-179.20641602 164.27833008 -179.20641602 164.27833008 -180.35351562 164.08007812 C-182.19871484 163.76275087 -184.04641425 163.46002334 -185.89453125 163.16015625 C-186.22453125 162.17015625 -186.55453125 161.18015625 -186.89453125 160.16015625 C-186.23453125 159.83015625 -185.57453125 159.50015625 -184.89453125 159.16015625 C-186.87453125 158.17015625 -188.85453125 157.18015625 -190.89453125 156.16015625 C-190.89453125 155.50015625 -190.89453125 154.84015625 -190.89453125 154.16015625 C-184.46197724 154.03929407 -178.2768007 154.33663761 -171.89453125 155.16015625 C-171.94673828 153.28070313 -171.94673828 153.28070313 -172 151.36328125 C-172.02814253 149.71225301 -172.05544219 148.06121024 -172.08203125 146.41015625 C-172.10716797 145.58515625 -172.13230469 144.76015625 -172.15820312 143.91015625 C-172.23216547 137.79593532 -172.23216547 137.79593532 -170.55859375 134.64453125 C-168.02662185 132.38596476 -166.26309339 132.16015625 -162.89453125 132.16015625 C-159.79543248 133.27583181 -158.86574731 133.67808983 -156.89453125 136.16015625 C-153.47939813 143.86859957 -152.30986486 151.80807168 -151.89453125 160.16015625 C-151.28296677 160.20583237 -150.67140228 160.25150848 -150.04130554 160.29856873 C-141.69331354 160.98419604 -133.44082505 162.19011307 -125.1640625 163.4453125 C-123.67766902 163.66836218 -122.19123329 163.89113045 -120.70475769 164.1136322 C-116.82960301 164.69444098 -112.95502676 165.27902083 -109.08056641 165.86444092 C-105.11200197 166.46337901 -101.14289147 167.05867563 -97.17382812 167.65429688 C-89.4135295 168.81939294 -81.65383929 169.98848132 -73.89453125 171.16015625 C-73.9102417 170.54084229 -73.92595215 169.92152832 -73.94213867 169.28344727 C-74.00517155 166.4299462 -74.04373562 163.57659234 -74.08203125 160.72265625 C-74.10716797 159.74876953 -74.13230469 158.77488281 -74.15820312 157.77148438 C-74.23202771 150.4136339 -73.58365031 143.62998729 -68.95703125 137.66015625 C-66.74471777 136.05120099 -65.59577545 135.46886987 -62.89453125 135.16015625 C-61.82203125 135.03640625 -60.74953125 134.91265625 -59.64453125 134.78515625 C-53.84520673 135.3650887 -50.05369927 137.72798997 -46.1953125 142.07421875 C-38.81071008 152.30477625 -35.79522707 165.68049563 -35.89453125 178.16015625 C-35.33507812 178.22485107 -34.775625 178.2895459 -34.19921875 178.35620117 C-16.01861274 180.4844574 2.03687508 183.25282429 20.10546875 186.16015625 C19.98561113 179.92023758 19.86129338 173.68042794 19.7331543 167.44067383 C19.69031427 165.32578842 19.6486133 163.21087957 19.6081543 161.09594727 C19.36495442 148.42853655 18.98097859 135.80079948 18.10546875 123.16015625 C17.3376709 123.2370166 16.56987305 123.31387695 15.77880859 123.39306641 C7.57205568 124.1942611 -0.65239824 124.53034452 -8.89453125 124.16015625 C-11.01500508 122.03968242 -10.08321312 117.31745403 -10.09765625 114.3828125 C-10.10335632 113.501129 -10.1090564 112.6194455 -10.1149292 111.71104431 C-10.1243933 109.84228725 -10.13091876 107.97351339 -10.13476562 106.10473633 C-10.14447875 103.23814977 -10.17549153 100.37227767 -10.20703125 97.50585938 C-10.21356017 95.69401469 -10.21881108 93.88216486 -10.22265625 92.0703125 C-10.23500305 91.20882095 -10.24734985 90.34732941 -10.2600708 89.45973206 C-10.25097656 87.04321289 -10.25097656 87.04321289 -9.89453125 83.16015625 C-7.11679983 81.3083353 -6.0106968 80.82598815 -2.8828125 80.30859375 C-1.74682617 80.11523438 -1.74682617 80.11523438 -0.58789062 79.91796875 C0.19779297 79.79164063 0.98347656 79.6653125 1.79296875 79.53515625 C2.59025391 79.40109375 3.38753906 79.26703125 4.20898438 79.12890625 C6.17340895 78.79954165 8.13930802 78.47899312 10.10546875 78.16015625 C9.77546875 76.51015625 9.44546875 74.86015625 9.10546875 73.16015625 C8.51531982 73.28132813 7.9251709 73.4025 7.31713867 73.52734375 C4.64302393 74.07463871 1.96801752 74.61744588 -0.70703125 75.16015625 C-1.63580078 75.3509375 -2.56457031 75.54171875 -3.52148438 75.73828125 C-4.41416016 75.91875 -5.30683594 76.09921875 -6.2265625 76.28515625 C-7.04874268 76.45273438 -7.87092285 76.6203125 -8.71801758 76.79296875 C-10.89453125 77.16015625 -10.89453125 77.16015625 -13.89453125 77.16015625 C-13.89453125 108.18015625 -13.89453125 139.20015625 -13.89453125 171.16015625 C-15.21453125 171.49015625 -16.53453125 171.82015625 -17.89453125 172.16015625 C-17.89453125 141.14015625 -17.89453125 110.12015625 -17.89453125 78.16015625 C-26.80453125 79.81015625 -35.71453125 81.46015625 -44.89453125 83.16015625 C-52.47466725 84.4750778 -60.05516195 85.77623139 -67.64453125 87.03515625 C-68.64581055 87.20179779 -69.64708984 87.36843933 -70.67871094 87.54013062 C-92.92208306 91.23449909 -115.20761565 94.63207635 -137.52874756 97.82165527 C-139.67786725 98.12915554 -141.8265305 98.4396444 -143.97509766 98.75097656 C-156.6998766 100.57453031 -169.03567586 101.59852632 -181.89453125 101.16015625 C-179.50554816 98.77117316 -178.19466011 98.58916889 -174.92732239 97.86579895 C-173.87553299 97.62915527 -172.82374359 97.3925116 -171.74008179 97.1486969 C-170.58037872 96.89571335 -169.42067566 96.6427298 -168.22583008 96.38208008 C-166.39813835 95.97422775 -166.39813835 95.97422775 -164.53352356 95.55813599 C-161.17743275 94.81072798 -157.8200041 94.06994444 -154.46183991 93.33194566 C-150.91971045 92.55184274 -147.37947698 91.76322892 -143.83903503 90.97550964 C-137.09517002 89.47639021 -130.34967621 87.98473866 -123.60355347 86.49581593 C-115.31182135 84.66542506 -107.02208487 82.82606304 -98.73242188 80.98632812 C-95.78352014 80.33192953 -92.83460278 79.67760141 -89.88566589 79.02336121 C-89.16578812 78.86365095 -88.44591034 78.7039407 -87.70421809 78.53939074 C-82.86192331 77.46536103 -78.01909155 76.39377882 -73.17597961 75.32344055 C-55.07026112 71.32083848 -36.9784967 67.25977595 -18.89453125 63.16015625 C-18.56453125 60.85015625 -18.23453125 58.54015625 -17.89453125 56.16015625 C-18.58777496 56.3306398 -19.28101868 56.50112335 -19.99526978 56.67677307 C-39.92159047 61.56362096 -59.90564756 66.14685947 -79.93705368 70.58118057 C-82.30568491 71.10566168 -84.67411543 71.63104146 -87.04251099 72.15658569 C-105.2829873 76.20239478 -123.5269404 80.22762174 -141.83203125 83.97265625 C-142.56726013 84.12346649 -143.30248901 84.27427673 -144.05999756 84.42965698 C-151.70678788 85.99184677 -159.37059789 87.45921945 -167.05078125 88.84765625 C-168.10464272 89.04165764 -168.10464272 89.04165764 -169.17979431 89.23957825 C-174.17959258 90.12698506 -178.83307778 90.43623553 -183.89453125 90.16015625 C-182.89453125 88.16015625 -182.89453125 88.16015625 -180.29899597 87.17192078 C-178.55614067 86.65115715 -178.55614067 86.65115715 -176.77807617 86.11987305 C-176.13565885 85.9256095 -175.49324152 85.73134596 -174.831357 85.53119564 C-172.68139885 84.8831376 -170.52828415 84.24628667 -168.375 83.609375 C-166.86011276 83.15523186 -165.34542712 82.70041574 -163.83093262 82.2449646 C-159.76187964 81.02345799 -155.68999449 79.81166085 -151.61745834 78.60182571 C-147.38834628 77.3438652 -143.16174588 76.07752 -138.93481445 74.81225586 C-130.69532124 72.34757482 -122.45274633 69.89335306 -114.20898438 67.44299316 C-110.45902024 66.32831231 -106.70980467 65.21113885 -102.9609375 64.09277344 C-71.00371207 54.56109023 -38.96270978 45.31108431 -6.89453125 36.16015625 C-8.94524629 33.46111111 -8.94524629 33.46111111 -11.89453125 31.16015625 C-15.22448723 31.04145453 -15.22448723 31.04145453 -18.7487793 32.06469727 C-19.40405704 32.22046266 -20.05933477 32.37622805 -20.73446941 32.5367136 C-22.79927504 33.04152433 -24.84617859 33.59249865 -26.89453125 34.16015625 C-28.13836578 34.50150604 -29.38220032 34.84285583 -30.66372681 35.19454956 C-34.5347407 36.30989638 -38.38117939 37.4877078 -42.2265625 38.6875 C-43.66038119 39.12895469 -45.09437099 39.56985393 -46.52851868 40.01023865 C-50.98730622 41.38253278 -55.44121514 42.77022763 -59.89453125 44.16015625 C-61.31669685 44.60317586 -62.73887681 45.04614937 -64.16107178 45.48907471 C-74.68072183 48.7677008 -85.19069212 52.07696078 -95.69946289 55.39025879 C-111.54150973 60.38470132 -127.38963 65.35049743 -143.30078125 70.12109375 C-145.11838203 70.66613304 -145.11838203 70.66613304 -146.97270203 71.22218323 C-153.86817263 73.28035594 -160.77566436 75.28871409 -167.70703125 77.22265625 C-168.41849808 77.42592026 -169.1299649 77.62918427 -169.86299133 77.83860779 C-175.24838587 79.26749877 -178.97354278 79.16015625 -184.89453125 79.16015625 C-184.89453125 88.40015625 -184.89453125 97.64015625 -184.89453125 107.16015625 C-187.36953125 107.65515625 -187.36953125 107.65515625 -189.89453125 108.16015625 C-195.20284408 94.00465537 -194.16151522 76.74503424 -188.16015625 62.96484375 C-180.37035011 46.30697053 -169.05824585 33.5242175 -151.48046875 26.8671875 C-137.20777601 22.32289338 -121.25924713 21.04610795 -106.89453125 26.16015625 C-104.3984375 28.5859375 -104.3984375 28.5859375 -102.89453125 31.16015625 C-103.22453125 32.15015625 -103.55453125 33.14015625 -103.89453125 34.16015625 C-98.67995563 32.5153854 -93.67643122 30.47604545 -88.6328125 28.37890625 C-86.7851864 27.61569674 -84.93744425 26.85276813 -83.08959961 26.09008789 C-82.12827118 25.69274445 -81.16694275 25.295401 -80.17648315 24.88601685 C-66.29582984 19.15575197 -52.41436166 13.44204587 -38.33203125 8.22265625 C-37.30827393 7.84109375 -36.2845166 7.45953125 -35.22973633 7.06640625 C-23.35439998 2.73393184 -12.59138507 0.69668932 0 0 Z M30.10546875 23.16015625 C35.06792164 28.90953532 43.93092894 29.49584701 51.10546875 30.16015625 C52.32528949 34.10442244 53.29485091 37.97352249 54 42.04296875 C54.15146484 42.90019531 54.30292969 43.75742188 54.45898438 44.640625 C54.76595547 46.40930099 55.06015971 48.1802385 55.34179688 49.953125 C56.33781095 55.43326883 57.40168137 58.70835438 62.10546875 62.16015625 C65.77404597 62.66140908 65.77404597 62.66140908 69.10546875 62.16015625 C70.72203832 60.54358668 70.31541441 58.83736126 70.35546875 56.59765625 C70.30938352 51.56778249 69.6898629 46.78228573 68.79296875 41.84765625 C68.6753418 41.17855225 68.55771484 40.50944824 68.43652344 39.82006836 C67.59625793 35.50538021 66.57767677 31.81312034 64.10546875 28.16015625 C59.32266311 25.47128625 54.76700627 24.59829843 49.35546875 23.97265625 C48.66388672 23.89225098 47.97230469 23.8118457 47.25976562 23.72900391 C41.53590302 23.10701791 35.86103407 22.94066435 30.10546875 23.16015625 Z M-172.70703125 50.97265625 C-176.78649313 55.93895767 -181.89453125 62.57225924 -181.89453125 69.16015625 C-176.86659915 67.59309915 -172.128124 65.58423241 -167.32421875 63.44921875 C-166.08394676 62.90216278 -166.08394676 62.90216278 -164.81861877 62.34405518 C-163.04964187 61.56362631 -161.28116703 60.7820586 -159.51315308 59.99945068 C-154.90198286 57.95860151 -150.28698167 55.92645963 -145.671875 53.89453125 C-144.75404739 53.49027924 -143.83621979 53.08602722 -142.89057922 52.66952515 C-130.93125162 47.40795596 -118.91900718 42.2709026 -106.89453125 37.16015625 C-110.37273758 34.84135203 -113.05283315 34.34208476 -117.14453125 33.53515625 C-118.4284375 33.27476562 -119.71234375 33.014375 -121.03515625 32.74609375 C-140.17725291 29.83990499 -159.54935498 36.92244614 -172.70703125 50.97265625 Z M41.10546875 39.16015625 C43.08293478 39.89095891 45.08619364 40.55437372 47.10546875 41.16015625 C47.76546875 40.83015625 48.42546875 40.50015625 49.10546875 40.16015625 C48.77546875 39.17015625 48.44546875 38.18015625 48.10546875 37.16015625 C44.05924373 36.79035612 44.05924373 36.79035612 41.10546875 39.16015625 Z M44.10546875 50.16015625 C44.10546875 50.82015625 44.10546875 51.48015625 44.10546875 52.16015625 C46.41546875 52.49015625 48.72546875 52.82015625 51.10546875 53.16015625 C50.77546875 51.84015625 50.44546875 50.52015625 50.10546875 49.16015625 C47.94912839 49.16015625 46.18100523 49.60667985 44.10546875 50.16015625 Z M-6.45703125 53.16015625 C-7.5234082 53.44632813 -7.5234082 53.44632813 -8.61132812 53.73828125 C-10.37269379 54.21113109 -12.13365083 54.68550256 -13.89453125 55.16015625 C-13.89453125 57.80015625 -13.89453125 60.44015625 -13.89453125 63.16015625 C-7.95453125 61.84015625 -2.01453125 60.52015625 4.10546875 59.16015625 C3.44546875 56.52015625 2.78546875 53.88015625 2.10546875 51.16015625 C-0.70976313 51.16015625 -3.72694622 52.42350614 -6.45703125 53.16015625 Z M-165.89453125 141.16015625 C-168.39384737 144.95872004 -168.19186905 148.83996463 -168.14453125 153.22265625 C-168.15226562 153.94259766 -168.16 154.66253906 -168.16796875 155.40429688 C-168.15391043 159.18949988 -168.04212815 160.9387609 -165.89453125 164.16015625 C-164.90453125 163.83015625 -163.91453125 163.50015625 -162.89453125 163.16015625 C-161.71620504 159.62517763 -161.71055816 156.40122554 -161.70703125 152.72265625 C-161.68576172 150.74458984 -161.68576172 150.74458984 -161.6640625 148.7265625 C-161.87224222 145.50506955 -162.17284359 143.82094626 -163.89453125 141.16015625 C-164.55453125 141.16015625 -165.21453125 141.16015625 -165.89453125 141.16015625 Z M-59.95703125 146.16015625 C-64.85255532 153.74032255 -65.03865329 163.36901799 -63.32421875 172.046875 C-61.7605035 177.78963993 -61.7605035 177.78963993 -57.89453125 182.16015625 C-55.23123273 182.07692817 -54.18321708 181.43773878 -52.26953125 179.59765625 C-47.55277588 171.23613536 -47.69681317 160.64765301 -50.20703125 151.59765625 C-51.20694094 148.37572502 -52.19004989 146.25028629 -54.89453125 144.16015625 C-58.01440793 143.81208333 -58.01440793 143.81208333 -59.95703125 146.16015625 Z " fill="#000000" transform="translate(273.89453125,134.83984375)"/>
<path d="M0 0 C29.25126612 -0.92035447 61.96135029 11.12802407 89.23046875 20.47265625 C89.91689453 20.70275391 90.60332031 20.93285156 91.31054688 21.16992188 C94.80522863 22.41776112 95.97711885 22.9676314 98.10546875 26.16015625 C98.10546875 28.14015625 98.10546875 30.12015625 98.10546875 32.16015625 C88.20546875 32.65515625 88.20546875 32.65515625 78.10546875 33.16015625 C86.35546875 35.14015625 94.60546875 37.12015625 103.10546875 39.16015625 C103.43546875 40.81015625 103.76546875 42.46015625 104.10546875 44.16015625 C94.70318281 44.27719715 85.47650981 44.04511122 76.10546875 43.16015625 C76.43546875 43.82015625 76.76546875 44.48015625 77.10546875 45.16015625 C79.71332005 45.90139822 82.27212423 46.52804707 84.91796875 47.09765625 C85.68246338 47.27240479 86.44695801 47.44715332 87.23461914 47.62719727 C90.75969176 48.43289652 94.28690338 49.1966714 97.83203125 49.91015625 C98.89164062 50.13703125 99.95125 50.36390625 101.04296875 50.59765625 C102.44869141 50.87416016 102.44869141 50.87416016 103.8828125 51.15625 C106.10546875 52.16015625 106.10546875 52.16015625 108.10546875 57.16015625 C98.53546875 57.16015625 88.96546875 57.16015625 79.10546875 57.16015625 C78.77546875 58.48015625 78.44546875 59.80015625 78.10546875 61.16015625 C78.91177734 61.29591064 79.71808594 61.43166504 80.54882812 61.5715332 C84.23581632 62.19706114 87.92060282 62.83475039 91.60546875 63.47265625 C92.87390625 63.68599609 94.14234375 63.89933594 95.44921875 64.11914062 C101.98841054 65.26009336 108.00065663 66.53169548 114.10546875 69.16015625 C113.77546875 70.48015625 113.44546875 71.80015625 113.10546875 73.16015625 C112.50349167 73.1351001 111.90151459 73.11004395 111.28129578 73.08422852 C104.97011125 72.82198568 98.65880133 72.56293248 92.34741211 72.30566406 C89.99744413 72.20946371 87.64750839 72.11247207 85.29760742 72.01464844 C81.90421757 71.8735272 78.51071884 71.73532828 75.1171875 71.59765625 C73.56181526 71.53203491 73.56181526 71.53203491 71.97502136 71.46508789 C65.34794449 71.19978462 58.73763796 71.10873974 52.10546875 71.16015625 C52.10546875 71.82015625 52.10546875 72.48015625 52.10546875 73.16015625 C53.5279895 73.22710693 53.5279895 73.22710693 54.97924805 73.29541016 C64.62074504 73.79651737 74.11054323 74.81155601 83.66186523 76.20703125 C85.93278285 76.53731079 88.20540747 76.85315947 90.47851562 77.16796875 C112.113826 80.23150545 112.113826 80.23150545 118.10546875 85.16015625 C117.77546875 86.15015625 117.44546875 87.14015625 117.10546875 88.16015625 C96.31546875 88.49015625 75.52546875 88.82015625 54.10546875 89.16015625 C54.10546875 89.49015625 54.10546875 89.82015625 54.10546875 90.16015625 C56.01670532 90.36378784 56.01670532 90.36378784 57.96655273 90.5715332 C62.77757831 91.08569844 67.58774226 91.6075857 72.39770508 92.1315918 C74.46389041 92.35564372 76.53029213 92.5777108 78.59692383 92.79760742 C88.70257599 93.87413771 98.7997871 94.97492436 108.828125 96.640625 C109.5146666 96.74812576 110.20120819 96.85562653 110.90855408 96.96638489 C114.66458936 97.63104468 117.3618534 98.44341784 120.10546875 101.16015625 C120.10546875 101.82015625 120.10546875 102.48015625 120.10546875 103.16015625 C118.98277588 103.1852124 117.86008301 103.21026855 116.70336914 103.23608398 C112.45199263 103.33179111 108.20071929 103.43158072 103.94946289 103.5324707 C102.12559457 103.57521386 100.30170152 103.61691711 98.4777832 103.6574707 C89.20308863 103.8643697 79.92982738 104.10358653 70.6640625 104.5703125 C69.34591553 104.63484619 68.02776855 104.69937988 66.66967773 104.76586914 C63.21574551 105.14795699 60.34316046 105.92643715 57.10546875 107.16015625 C64.95361831 108.56789191 72.77854994 109.45903664 80.71875 110.125 C81.66458954 110.20497223 82.61042908 110.28494446 83.58493042 110.36734009 C87.52843046 110.69762789 91.47222917 111.02290549 95.41723633 111.3347168 C98.33119076 111.56705947 101.2436531 111.81378961 104.15625 112.0625 C105.0366243 112.12823715 105.9169986 112.1939743 106.8240509 112.26170349 C112.39560689 112.74951708 117.02199456 113.76829381 122.10546875 116.16015625 C122.43546875 117.15015625 122.76546875 118.14015625 123.10546875 119.16015625 C122.37297409 119.17855057 121.64047943 119.19694489 120.88578796 119.21589661 C113.98440597 119.39177976 107.08353202 119.58157447 100.182971 119.78702259 C96.63523779 119.89215632 93.08752328 119.99189541 89.53930664 120.0793457 C85.46053753 120.18010802 81.38277316 120.30425949 77.3046875 120.4296875 C76.02961838 120.4579512 74.75454926 120.4862149 73.44084167 120.51533508 C72.2598439 120.55514999 71.07884613 120.5949649 69.86206055 120.63598633 C68.82059372 120.66485428 67.77912689 120.69372223 66.70610046 120.72346497 C63.80195816 121.21112096 62.88403136 121.87148117 61.10546875 124.16015625 C62.19214844 124.19753906 63.27882813 124.23492187 64.3984375 124.2734375 C75.97764288 124.72390404 87.53704583 125.47385634 99.09121704 126.34750366 C100.7637165 126.4723316 102.4365586 126.59265265 104.10971069 126.70840454 C106.49487467 126.87481271 108.87815247 127.058331 111.26171875 127.24609375 C111.97870438 127.293069 112.69569 127.34004425 113.43440247 127.38844299 C117.68318255 127.74583662 120.75927792 128.4456443 124.10546875 131.16015625 C124.10546875 132.15015625 124.10546875 133.14015625 124.10546875 134.16015625 C95.11703892 136.30317264 95.11703892 136.30317264 83.05737305 136.81811523 C78.67365215 137.01874436 74.4333303 137.47561867 70.10546875 138.16015625 C75.99204586 139.40761339 81.85759007 139.38426174 87.84765625 139.4765625 C88.97116486 139.4973436 90.09467346 139.51812469 91.25222778 139.53953552 C94.82824807 139.60472849 98.40433952 139.66377509 101.98046875 139.72265625 C104.4101635 139.76587025 106.83985115 139.80948545 109.26953125 139.85351562 C115.21476932 139.96037879 121.16007761 140.06220052 127.10546875 140.16015625 C125.8022817 112.93890964 123.82189227 86.18357762 115.10546875 60.16015625 C114.86038574 59.42732422 114.61530273 58.69449219 114.36279297 57.93945312 C111.05996757 48.26294793 106.87877464 39.19836859 102.10546875 30.16015625 C105.26662651 31.52999128 106.09817795 32.14922005 108.10546875 35.16015625 C110.656555 35.77064741 113.08266702 36.22372233 115.66796875 36.59765625 C124.28880858 38.05269891 132.1976904 39.64646339 137.82421875 46.9140625 C142.02330673 54.27526856 143.53882439 62.8021519 144.10546875 71.16015625 C140.820274 72.25522117 138.3688346 72.25976233 134.91796875 72.22265625 C133.83128906 72.21363281 132.74460937 72.20460938 131.625 72.1953125 C130.79355469 72.18371094 129.96210938 72.17210937 129.10546875 72.16015625 C126.24045622 64.81077627 125.45771784 58.01895488 125.10546875 50.16015625 C128.96337459 53.3803917 129.88049103 56.03526766 130.85546875 60.91015625 C131.0978125 62.080625 131.34015625 63.25109375 131.58984375 64.45703125 C131.84507812 65.79507813 131.84507812 65.79507813 132.10546875 67.16015625 C133.75546875 67.16015625 135.40546875 67.16015625 137.10546875 67.16015625 C136.48438285 64.76324708 135.85874509 62.36768131 135.23046875 59.97265625 C135.05644531 59.29912109 134.88242187 58.62558594 134.703125 57.93164062 C133.25977313 52.41782948 133.25977313 52.41782948 131.10546875 47.16015625 C126.15485636 44.68485005 120.55303069 44.56926169 115.10546875 44.16015625 C115.32460938 44.69640625 115.54375 45.23265625 115.76953125 45.78515625 C116.46918995 47.514394 117.15782342 49.24810493 117.83984375 50.984375 C118.69298424 53.12512568 119.57930655 55.25291141 120.49609375 57.3671875 C128.86728192 77.70036298 131.92254159 100.39074556 134.10546875 122.16015625 C134.25121338 123.51149658 134.25121338 123.51149658 134.39990234 124.89013672 C134.66990919 127.49926043 134.89636887 130.10801638 135.10546875 132.72265625 C135.18385986 133.4904541 135.26225098 134.25825195 135.34301758 135.04931641 C135.58205399 138.8356871 135.28387285 141.54654219 133.10546875 144.625 C127.10939259 149.69199665 117.62332965 148.34717252 110.08203125 148.3984375 C108.94067719 148.40650925 107.79932312 148.41458099 106.62338257 148.42289734 C104.2180124 148.43667407 101.81262322 148.44742462 99.40722656 148.45532227 C96.9595767 148.46686165 94.51195239 148.48734401 92.06445312 148.5168457 C88.50764048 148.55965565 84.95156998 148.57570721 81.39453125 148.5859375 C80.31193024 148.60344559 79.22932922 148.62095367 78.11392212 148.63899231 C66.85460109 148.60715164 59.4459717 145.20082652 51.37109375 137.46875 C44.05079582 130.00961883 41.1310831 124.54633158 39.58984375 114.1796875 C39.30881713 112.36940616 39.02738869 110.55918716 38.74560547 108.74902344 C38.6005658 107.80522827 38.45552612 106.86143311 38.30609131 105.88903809 C32.70892968 56.42017743 32.70892968 56.42017743 7.10546875 16.16015625 C-2.11661126 10.60846408 -11.93316044 11.67700977 -21.92871094 14.05371094 C-30.06786715 16.21729719 -37.90658666 19.42384464 -45.76953125 22.41015625 C-47.67792911 23.12808703 -49.58654312 23.84544346 -51.49536133 24.56225586 C-65.48513301 29.82624108 -79.43559531 35.19304329 -93.38061523 40.57421875 C-117.52195195 49.8875734 -141.69335482 59.12408756 -166.14453125 67.59765625 C-166.82546844 67.83552856 -167.50640564 68.07340088 -168.20797729 68.31848145 C-170.10628326 68.97972735 -172.0081376 69.63076037 -173.91015625 70.28125 C-174.97524414 70.64661865 -176.04033203 71.0119873 -177.13769531 71.38842773 C-179.89453125 72.16015625 -179.89453125 72.16015625 -183.89453125 72.16015625 C-184.76948304 80.08009755 -185.02043167 87.88358755 -184.95703125 95.84765625 C-184.95251953 96.94271484 -184.94800781 98.03777344 -184.94335938 99.16601562 C-184.93172281 101.83078934 -184.91537689 104.49544142 -184.89453125 107.16015625 C-187.36953125 107.65515625 -187.36953125 107.65515625 -189.89453125 108.16015625 C-195.20284408 94.00465537 -194.16151522 76.74503424 -188.16015625 62.96484375 C-180.37035011 46.30697053 -169.05824585 33.5242175 -151.48046875 26.8671875 C-137.20777601 22.32289338 -121.25924713 21.04610795 -106.89453125 26.16015625 C-104.3984375 28.5859375 -104.3984375 28.5859375 -102.89453125 31.16015625 C-103.22453125 32.15015625 -103.55453125 33.14015625 -103.89453125 34.16015625 C-98.67995563 32.5153854 -93.67643122 30.47604545 -88.6328125 28.37890625 C-86.7851864 27.61569674 -84.93744425 26.85276813 -83.08959961 26.09008789 C-82.12827118 25.69274445 -81.16694275 25.295401 -80.17648315 24.88601685 C-66.29582984 19.15575197 -52.41436166 13.44204587 -38.33203125 8.22265625 C-37.30827393 7.84109375 -36.2845166 7.45953125 -35.22973633 7.06640625 C-23.35439998 2.73393184 -12.59138507 0.69668932 0 0 Z M30.10546875 23.16015625 C35.06792164 28.90953532 43.93092894 29.49584701 51.10546875 30.16015625 C52.32528949 34.10442244 53.29485091 37.97352249 54 42.04296875 C54.15146484 42.90019531 54.30292969 43.75742188 54.45898438 44.640625 C54.76595547 46.40930099 55.06015971 48.1802385 55.34179688 49.953125 C56.33781095 55.43326883 57.40168137 58.70835438 62.10546875 62.16015625 C65.77404597 62.66140908 65.77404597 62.66140908 69.10546875 62.16015625 C70.72203832 60.54358668 70.31541441 58.83736126 70.35546875 56.59765625 C70.30938352 51.56778249 69.6898629 46.78228573 68.79296875 41.84765625 C68.6753418 41.17855225 68.55771484 40.50944824 68.43652344 39.82006836 C67.59625793 35.50538021 66.57767677 31.81312034 64.10546875 28.16015625 C59.32266311 25.47128625 54.76700627 24.59829843 49.35546875 23.97265625 C48.66388672 23.89225098 47.97230469 23.8118457 47.25976562 23.72900391 C41.53590302 23.10701791 35.86103407 22.94066435 30.10546875 23.16015625 Z M-172.70703125 50.97265625 C-176.78649313 55.93895767 -181.89453125 62.57225924 -181.89453125 69.16015625 C-176.86659915 67.59309915 -172.128124 65.58423241 -167.32421875 63.44921875 C-166.08394676 62.90216278 -166.08394676 62.90216278 -164.81861877 62.34405518 C-163.04964187 61.56362631 -161.28116703 60.7820586 -159.51315308 59.99945068 C-154.90198286 57.95860151 -150.28698167 55.92645963 -145.671875 53.89453125 C-144.75404739 53.49027924 -143.83621979 53.08602722 -142.89057922 52.66952515 C-130.93125162 47.40795596 -118.91900718 42.2709026 -106.89453125 37.16015625 C-110.37273758 34.84135203 -113.05283315 34.34208476 -117.14453125 33.53515625 C-118.4284375 33.27476562 -119.71234375 33.014375 -121.03515625 32.74609375 C-140.17725291 29.83990499 -159.54935498 36.92244614 -172.70703125 50.97265625 Z M41.10546875 39.16015625 C43.08293478 39.89095891 45.08619364 40.55437372 47.10546875 41.16015625 C47.76546875 40.83015625 48.42546875 40.50015625 49.10546875 40.16015625 C48.77546875 39.17015625 48.44546875 38.18015625 48.10546875 37.16015625 C44.05924373 36.79035612 44.05924373 36.79035612 41.10546875 39.16015625 Z M44.10546875 50.16015625 C44.10546875 50.82015625 44.10546875 51.48015625 44.10546875 52.16015625 C46.41546875 52.49015625 48.72546875 52.82015625 51.10546875 53.16015625 C50.77546875 51.84015625 50.44546875 50.52015625 50.10546875 49.16015625 C47.94912839 49.16015625 46.18100523 49.60667985 44.10546875 50.16015625 Z " fill="#000000" transform="translate(273.89453125,134.83984375)"/>
<path d="M0 0 C2.43359375 2.61328125 2.43359375 2.61328125 4 5 C3.01 6.65 2.02 8.3 1 10 C-6.16486778 9.18888289 -6.16486778 9.18888289 -9.41796875 8.453125 C-25.24037631 4.91043768 -41.05488681 8.0275156 -54.9375 16.25 C-66.33004468 24.15399919 -74.63347655 36.83354663 -77.5 50.5 C-78.70658599 60.54552984 -78.15926531 70.90012938 -78 81 C-80.475 81.495 -80.475 81.495 -83 82 C-88.30831283 67.84449912 -87.26698397 50.58487799 -81.265625 36.8046875 C-73.47581886 20.14681428 -62.1637146 7.36406125 -44.5859375 0.70703125 C-30.31324476 -3.83726287 -14.36471588 -5.1140483 0 0 Z " fill="#F3B435" transform="translate(167,161)"/>
<path d="M0 0 C1.50662097 3.01324195 1.17770373 5.68286377 1 9 C-1.46298465 11.46298465 -2.40968264 11.34050551 -5.81665039 11.59033203 C-7.30770798 11.70033539 -7.30770798 11.70033539 -8.82888794 11.81256104 C-32.62581004 13.21915606 -56.46340586 13.15894787 -80.29223633 13.13037109 C-85.14405446 13.12460554 -89.99581806 13.12801485 -94.84763432 13.13394356 C-98.64745997 13.13757444 -102.44727287 13.13640018 -106.24709892 13.13381577 C-108.03660527 13.13315706 -109.82611284 13.13393716 -111.61561775 13.13629532 C-134.28610738 13.15969162 -134.28610738 13.15969162 -141 12 C-141.66 11.34 -142.32 10.68 -143 10 C-126.18674973 8.46721644 -109.3627421 7.20681491 -92.51953125 6.0546875 C-89.9612279 5.87832454 -87.40293442 5.70181825 -84.84465027 5.525177 C-79.53787911 5.15920504 -74.231018 4.79458096 -68.92407227 4.43115234 C-62.79951749 4.01171559 -56.67513756 3.5897951 -50.55084306 3.16657627 C-44.61299605 2.75628458 -38.6750419 2.34756166 -32.73703575 1.93957901 C-30.225547 1.76690339 -27.7140836 1.59385854 -25.20264626 1.42043686 C-21.71437179 1.17981521 -18.22598012 0.94097246 -14.73754883 0.70263672 C-13.7033783 0.6309729 -12.66920776 0.55930908 -11.60369873 0.48547363 C-10.65539688 0.42105072 -9.70709503 0.35662781 -8.73005676 0.29025269 C-7.49726093 0.20565701 -7.49726093 0.20565701 -6.23956013 0.11935234 C-4.16227406 0.00864803 -2.08023384 0 0 0 Z " fill="#000000" transform="translate(249,245)"/>
<path d="M0 0 C2.11572266 -0.3515625 2.11572266 -0.3515625 5 0 C7.26080088 1.8113487 9.15764417 3.55106766 11.1484375 5.625 C12.01186264 6.49547974 12.01186264 6.49547974 12.89273071 7.38354492 C14.73215539 9.24430141 16.55328046 11.12192372 18.375 13 C19.59264659 14.23416254 20.81138608 15.46724781 22.03125 16.69921875 C29.39265283 24.16301202 36.53924096 31.73022842 43 40 C42.34 41.32 41.68 42.64 41 44 C30.065661 42.02941583 19.42136389 26.82500891 12.4765625 18.6953125 C11.21106463 17.24233347 9.86246705 15.86246705 8.5 14.5 C6.33970588 12.33970588 4.20763975 10.17242764 2.125 7.9375 C1.50882813 7.28652344 0.89265625 6.63554688 0.2578125 5.96484375 C-1 4 -1 4 -0.6953125 1.75390625 C-0.46585938 1.17511719 -0.23640625 0.59632812 0 0 Z " fill="#F4B536" transform="translate(47,118)"/>
<path d="M0 0 C1.65 0 3.3 0 5 0 C8.46599358 10.68329677 11.54768342 21.41831744 14.27734375 32.31323242 C14.88487395 34.72672554 15.50872058 37.13566502 16.1328125 39.54492188 C16.5244315 41.09610355 16.91509372 42.64752718 17.3046875 44.19921875 C17.49102753 44.91067551 17.67736755 45.62213226 17.86935425 46.35514832 C18.82162139 50.23518261 19.16010088 53.14717503 18 57 C16.515 57.495 16.515 57.495 15 58 C11.65449068 55.34855992 10.99678642 52.36812721 9.87890625 48.33984375 C9.69387039 47.68180756 9.50883453 47.02377136 9.31819153 46.34579468 C8.72207252 44.21254214 8.14144394 42.07547218 7.5625 39.9375 C7.16052463 38.47609902 6.7583433 37.01475469 6.35595703 35.5534668 C4.24445135 27.83729341 2.17402757 20.10828613 0.375 12.3125 C0.2107251 11.6208374 0.0464502 10.9291748 -0.12280273 10.21655273 C-0.92859067 6.50803781 -1.04997002 3.66089547 0 0 Z " fill="#F4B536" transform="translate(98,90)"/>
<path d="M0 0 C11.54865048 2.56636677 23.96955546 7.80889452 31 18 C31.86080343 20.53432072 32 22.28778886 32 25 C26.63732982 23.07621683 22.13169015 20.02440839 17.3515625 16.97265625 C13.95229225 14.97192027 10.64958973 13.47369509 7 12 C6.95101563 12.75925781 6.90203125 13.51851563 6.8515625 14.30078125 C6.77679688 15.29464844 6.70203125 16.28851563 6.625 17.3125 C6.55539062 18.29863281 6.48578125 19.28476562 6.4140625 20.30078125 C6 23 6 23 4 26 C2.68 25.34 1.36 24.68 0 24 C0 16.08 0 8.16 0 0 Z " fill="#000000" transform="translate(315,282)"/>
<path d="M0 0 C5.06537682 0.5427908 9.16459158 1.68866128 13.82421875 3.73046875 C14.45173538 4.00337234 15.07925201 4.27627594 15.7257843 4.55744934 C17.04771587 5.13428419 18.36786577 5.71521784 19.6862793 6.30004883 C21.66135798 7.17590719 23.64151322 8.03925108 25.62304688 8.90039062 C33.54364121 12.36219274 41.31089113 16.04614093 49 20 C48.505 22.475 48.505 22.475 48 25 C41.6868648 25.76394241 36.78519776 23.04558023 31.1875 20.5 C30.1759082 20.04947266 29.16431641 19.59894531 28.12207031 19.13476562 C25.0745138 17.7711067 22.03579358 16.38962736 19 15 C18.1145752 14.59523437 17.22915039 14.19046875 16.31689453 13.7734375 C2.9542726 7.63618173 2.9542726 7.63618173 -1 5 C-0.67 3.35 -0.34 1.7 0 0 Z " fill="#F4B536" transform="translate(25,164)"/>
<path d="M0 0 C6.03230491 -0.02474909 12.06458015 -0.04288334 18.09692383 -0.05493164 C20.14836136 -0.0599553 22.19979532 -0.06677537 24.2512207 -0.07543945 C27.2026457 -0.08759112 30.15402327 -0.09324804 33.10546875 -0.09765625 C34.02023483 -0.10281754 34.93500092 -0.10797882 35.87748718 -0.11329651 C40.04884192 -0.11366265 43.93379308 -0.06733315 48 1 C48 1.66 48 2.32 48 3 C32.62594125 6.14597061 17.65564539 6.342363 2 6 C1.34 4.02 0.68 2.04 0 0 Z " fill="#000000" transform="translate(352,296)"/>
<path d="M0 0 C15.51 0 31.02 0 47 0 C47 0.99 47 1.98 47 3 C31.96323736 5.57273514 17.2125674 6.15523028 2 6 C1.34 4.02 0.68 2.04 0 0 Z " fill="#000000" transform="translate(353,304)"/>
<path d="M0 0 C1.23363281 -0.01417969 2.46726562 -0.02835938 3.73828125 -0.04296875 C6.6875 0.1875 6.6875 0.1875 8.6875 2.1875 C8.15178571 5.72321429 8.15178571 5.72321429 6.6875 7.1875 C5.15883752 7.28688556 3.62563852 7.31830139 2.09375 7.3203125 C0.670625 7.32224609 0.670625 7.32224609 -0.78125 7.32421875 C-1.7815625 7.32035156 -2.781875 7.31648437 -3.8125 7.3125 C-4.781875 7.31636719 -5.75125 7.32023438 -6.75 7.32421875 C-12.68496158 7.31624165 -18.42692445 6.95359764 -24.3125 6.1875 C-23.9825 4.5375 -23.6525 2.8875 -23.3125 1.1875 C-15.544454 0.57046372 -7.79351121 0.07647257 0 0 Z " fill="#F4B536" transform="translate(56.3125,208.8125)"/>
<path d="M0 0 C1.32 0.33 2.64 0.66 4 1 C3.54770533 4.31335304 3.08703725 7.62549263 2.625 10.9375 C2.49867188 11.86369141 2.37234375 12.78988281 2.2421875 13.74414062 C-0.04575893 30.04575893 -0.04575893 30.04575893 -2 32 C-3.66617115 32.04063832 -5.33388095 32.042721 -7 32 C-7.28624383 25.52185014 -6.2756004 20.00002625 -4.625 13.75 C-4.40328125 12.86570312 -4.1815625 11.98140625 -3.953125 11.0703125 C-2.94195446 7.13269544 -1.92468312 3.59996492 0 0 Z " fill="#F4B536" transform="translate(152,111)"/>
<path d="M0 0 C0.8971875 0.309375 0.8971875 0.309375 1.8125 0.625 C0.4538032 4.10626921 -1.00629744 7.50648501 -2.625 10.875 C-3.24181641 12.18210937 -3.24181641 12.18210937 -3.87109375 13.515625 C-5.1875 15.625 -5.1875 15.625 -8.1875 16.625 C-8.53007859 11.14374259 -7.9056352 6.49079757 -5.1875 1.625 C-2.1875 -0.375 -2.1875 -0.375 0 0 Z " fill="#000000" transform="translate(412.1875,286.375)"/>
</svg>
