<svg xmlns="http://www.w3.org/2000/svg" xmlns:xlink="http://www.w3.org/1999/xlink" width="500" zoomAndPan="magnify" viewBox="0 0 375 374.999991" height="500" preserveAspectRatio="xMidYMid meet" version="1.0"><defs><clipPath id="ec006f5012"><path d="M 62 101.050781 L 313 101.050781 L 313 257.050781 L 62 257.050781 Z M 62 101.050781 " clip-rule="nonzero"/></clipPath><clipPath id="d8bf8c290a"><path d="M 61 118 L 128 118 L 128 183 L 61 183 Z M 61 118 " clip-rule="nonzero"/></clipPath><clipPath id="4304d59e11"><path d="M 3.429688 155.289062 L 50.523438 53.121094 L 141.792969 95.191406 L 94.699219 197.359375 Z M 3.429688 155.289062 " clip-rule="nonzero"/></clipPath><clipPath id="cb91e11e19"><path d="M 3.429688 155.289062 L 50.523438 53.121094 L 141.792969 95.191406 L 94.699219 197.359375 Z M 3.429688 155.289062 " clip-rule="nonzero"/></clipPath><clipPath id="b4c3b3f311"><path d="M 3.429688 155.289062 L 50.523438 53.121094 L 141.792969 95.191406 L 94.699219 197.359375 Z M 3.429688 155.289062 " clip-rule="nonzero"/></clipPath><clipPath id="54856b9022"><path d="M 73 67 L 88 67 L 88 111 L 73 111 Z M 73 67 " clip-rule="nonzero"/></clipPath><clipPath id="395dcea50f"><path d="M 3.429688 155.289062 L 50.523438 53.121094 L 141.792969 95.191406 L 94.699219 197.359375 Z M 3.429688 155.289062 " clip-rule="nonzero"/></clipPath><clipPath id="36c3a60787"><path d="M 3.429688 155.289062 L 50.523438 53.121094 L 141.792969 95.191406 L 94.699219 197.359375 Z M 3.429688 155.289062 " clip-rule="nonzero"/></clipPath><clipPath id="65926df1c7"><path d="M 3.429688 155.289062 L 50.523438 53.121094 L 141.792969 95.191406 L 94.699219 197.359375 Z M 3.429688 155.289062 " clip-rule="nonzero"/></clipPath><clipPath id="d316f2c2cf"><path d="M 34 88 L 67 88 L 67 122 L 34 122 Z M 34 88 " clip-rule="nonzero"/></clipPath><clipPath id="b8beb2b094"><path d="M 3.429688 155.289062 L 50.523438 53.121094 L 141.792969 95.191406 L 94.699219 197.359375 Z M 3.429688 155.289062 " clip-rule="nonzero"/></clipPath><clipPath id="397ce3d28e"><path d="M 3.429688 155.289062 L 50.523438 53.121094 L 141.792969 95.191406 L 94.699219 197.359375 Z M 3.429688 155.289062 " clip-rule="nonzero"/></clipPath><clipPath id="f73fe9f051"><path d="M 3.429688 155.289062 L 50.523438 53.121094 L 141.792969 95.191406 L 94.699219 197.359375 Z M 3.429688 155.289062 " clip-rule="nonzero"/></clipPath><clipPath id="5e5c222b2d"><path d="M 18 123 L 56 123 L 56 142 L 18 142 Z M 18 123 " clip-rule="nonzero"/></clipPath><clipPath id="e2671d79db"><path d="M 3.429688 155.289062 L 50.523438 53.121094 L 141.792969 95.191406 L 94.699219 197.359375 Z M 3.429688 155.289062 " clip-rule="nonzero"/></clipPath><clipPath id="cc436aab22"><path d="M 3.429688 155.289062 L 50.523438 53.121094 L 141.792969 95.191406 L 94.699219 197.359375 Z M 3.429688 155.289062 " clip-rule="nonzero"/></clipPath><clipPath id="918742594a"><path d="M 3.429688 155.289062 L 50.523438 53.121094 L 141.792969 95.191406 L 94.699219 197.359375 Z M 3.429688 155.289062 " clip-rule="nonzero"/></clipPath><clipPath id="8adae3cb08"><path d="M 108 83 L 117 83 L 117 108 L 108 108 Z M 108 83 " clip-rule="nonzero"/></clipPath><clipPath id="35bbdb8379"><path d="M 3.429688 155.289062 L 50.523438 53.121094 L 141.792969 95.191406 L 94.699219 197.359375 Z M 3.429688 155.289062 " clip-rule="nonzero"/></clipPath><clipPath id="319ecad6cc"><path d="M 3.429688 155.289062 L 50.523438 53.121094 L 141.792969 95.191406 L 94.699219 197.359375 Z M 3.429688 155.289062 " clip-rule="nonzero"/></clipPath><clipPath id="fbe74bc4d1"><path d="M 3.429688 155.289062 L 50.523438 53.121094 L 141.792969 95.191406 L 94.699219 197.359375 Z M 3.429688 155.289062 " clip-rule="nonzero"/></clipPath><clipPath id="f34d5cde26"><path d="M 24 157 L 49 157 L 49 162 L 24 162 Z M 24 157 " clip-rule="nonzero"/></clipPath><clipPath id="e92abbdd34"><path d="M 3.429688 155.289062 L 50.523438 53.121094 L 141.792969 95.191406 L 94.699219 197.359375 Z M 3.429688 155.289062 " clip-rule="nonzero"/></clipPath><clipPath id="7bdfb5ff87"><path d="M 3.429688 155.289062 L 50.523438 53.121094 L 141.792969 95.191406 L 94.699219 197.359375 Z M 3.429688 155.289062 " clip-rule="nonzero"/></clipPath><clipPath id="1145227164"><path d="M 3.429688 155.289062 L 50.523438 53.121094 L 141.792969 95.191406 L 94.699219 197.359375 Z M 3.429688 155.289062 " clip-rule="nonzero"/></clipPath></defs><g clip-path="url(#ec006f5012)"><path fill="#ffffff" d="M 64.890625 155.78125 C 64.890625 155.78125 178.769531 103.828125 196.316406 102.453125 C 213.863281 101.078125 214.035156 102.109375 228.660156 105.035156 C 243.28125 107.960938 274.675781 117.9375 276.738281 118.882812 C 278.800781 119.832031 279.574219 124.730469 278.285156 124.730469 C 276.996094 124.730469 261.6875 124.472656 262.289062 125.847656 C 262.890625 127.226562 280.949219 130.496094 282.070312 131.183594 C 283.1875 131.871094 283.976562 134.480469 281.914062 134.394531 C 279.847656 134.308594 262.539062 132.273438 262.203125 133.503906 C 262.109375 133.832031 262.140625 135.425781 264.417969 136.25 C 270.675781 138.515625 283.160156 139.828125 284.183594 140.449219 C 285.582031 141.304688 286.492188 143.539062 285.976562 143.796875 C 285.460938 144.054688 266.28125 143.453125 265.160156 143.796875 C 264.046875 144.140625 263.578125 147.4375 263.578125 147.4375 C 263.578125 147.4375 288.691406 151.828125 290.242188 153.117188 C 291.789062 154.40625 289.898438 155.695312 289.898438 155.695312 C 289.898438 155.695312 248.097656 153.375 245.859375 153.976562 C 243.625 154.578125 244.226562 156.382812 244.226562 156.382812 C 244.226562 156.382812 276.566406 159.824219 284.910156 161.800781 C 293.253906 163.78125 293.769531 166.105469 293.769531 166.707031 C 293.769531 167.308594 251.625 166.707031 247.578125 167.136719 C 243.539062 167.566406 244.226562 169.457031 244.226562 169.457031 C 244.226562 169.457031 284.308594 173.414062 289.8125 174.789062 C 295.316406 176.167969 295.230469 178.660156 295.230469 178.660156 C 295.230469 178.660156 264.09375 178.402344 256.4375 178.917969 C 248.785156 179.433594 246.804688 181.671875 246.71875 182.359375 C 246.632812 183.046875 282.414062 185.796875 287.832031 186.402344 C 293.253906 187.003906 295.746094 188.292969 296.433594 189.070312 C 297.121094 189.84375 297.207031 190.359375 297.207031 190.359375 C 297.207031 190.359375 260.828125 190.960938 255.835938 191.046875 C 250.847656 191.132812 250.417969 194.742188 250.417969 194.742188 C 250.417969 194.742188 291.394531 197.253906 294.664062 198.203125 C 297.929688 199.148438 298.5 201.539062 298.5 201.539062 C 298.5 201.539062 257.710938 203.523438 256.503906 204.210938 C 253.636719 205.847656 264.546875 206.871094 269.335938 206.9375 C 280.296875 207.085938 299.484375 207.277344 300.21875 206.785156 C 301.25 206.097656 301.59375 205.066406 301.59375 205.066406 C 301.59375 205.066406 300.734375 172.210938 294.199219 151.050781 C 287.660156 129.890625 282.328125 123.871094 282.328125 123.871094 C 282.328125 123.871094 284.078125 125.402344 286.5625 128.738281 C 286.5625 128.738281 300.21875 129.117188 305.984375 134.195312 C 311.742188 139.265625 312.777344 153.460938 312.945312 154.0625 C 313.121094 154.664062 303.359375 155.78125 302.414062 155.007812 C 301.46875 154.234375 299.144531 139.914062 299.53125 139.265625 C 299.917969 138.625 301.207031 140.601562 302.15625 144.085938 C 303.101562 147.566406 303.574219 150.921875 304.734375 151.78125 C 305.898438 152.640625 308.949219 151.824219 308.949219 151.824219 C 308.949219 151.824219 307.316406 141.203125 304.175781 137.117188 C 301.035156 133.03125 292.777344 133.761719 292.261719 133.890625 C 291.921875 133.976562 291.46875 135.183594 291.203125 135.996094 C 294.511719 141.992188 298.03125 150.382812 300.390625 161.542969 C 306.070312 188.378906 306.328125 206.183594 306.070312 206.957031 C 305.808594 207.730469 304.433594 211.601562 299.1875 211.773438 C 293.941406 211.949219 262.460938 213.324219 255.40625 211.257812 C 248.355469 209.195312 238.316406 198.554688 237.457031 195.28125 C 236.597656 192.015625 232.675781 159.523438 225.964844 137.332031 C 220.148438 118.085938 210.015625 104.523438 188.488281 111.054688 C 173.179688 115.699219 72.375 156.46875 64.890625 155.78125 Z M 265.382812 228.546875 C 265.382812 228.546875 299.789062 228.210938 300.734375 229.214844 C 301.679688 230.222656 287.316406 232.011719 275.449219 232.234375 C 263.578125 232.457031 266.15625 232.011719 265.382812 228.546875 Z M 264.625 222.574219 C 264.625 222.574219 299.03125 222.21875 299.976562 223.28125 C 300.921875 224.339844 286.558594 226.222656 274.691406 226.457031 C 262.820312 226.695312 265.402344 226.222656 264.625 222.574219 Z M 303.144531 226.226562 C 303.144531 226.226562 303.53125 221.019531 305.292969 217.667969 C 307.054688 214.3125 309.25 214.914062 309.25 214.914062 C 309.25 214.914062 310.195312 215.691406 310.152344 216.246094 C 310.109375 216.808594 307.3125 219.601562 306.242188 222.785156 C 305.164062 225.96875 304.519531 228.546875 303.144531 226.226562 Z M 236.886719 229.398438 C 236.886719 229.398438 236.886719 212.796875 236.886719 212.105469 C 236.886719 211.417969 245.574219 214.390625 253.316406 220.1875 C 261.054688 225.992188 260.710938 229.546875 259.679688 229.890625 C 258.648438 230.234375 251.078125 224.421875 247.039062 222.4375 C 242.992188 220.453125 241.101562 220.097656 241.101562 220.097656 C 241.101562 220.097656 241.101562 235.496094 236.886719 229.398438 Z M 194.554688 229.234375 C 194.554688 229.851562 194.050781 230.351562 193.433594 230.351562 C 192.816406 230.351562 192.316406 229.851562 192.316406 229.234375 L 192.316406 159.253906 C 153.324219 166.171875 76.804688 179.234375 68.890625 176.683594 L 192.316406 149.1875 L 192.316406 142.742188 C 154.34375 151.554688 67.515625 171.382812 67.515625 168.425781 C 67.515625 168.425781 183.425781 133.203125 201.761719 128.9375 C 199.910156 126.136719 198.058594 124.414062 196.191406 123.871094 C 189.652344 121.980469 70.269531 164.816406 66.742188 160.382812 C 66.742188 160.382812 183.71875 118.753906 190.941406 117.207031 C 198.167969 115.660156 203.84375 115.660156 210.039062 125.464844 C 216.230469 135.269531 223.066406 152.332031 227.539062 184.84375 C 230.910156 209.332031 230.808594 225.96875 230.664062 234.050781 C 230.5 242.816406 235.015625 244.792969 242.226562 244.445312 C 257.367188 243.71875 302.957031 241.378906 304.820312 239.515625 C 307.058594 237.277344 307.832031 231.6875 307.832031 231.6875 C 307.832031 231.6875 308.820312 231.46875 308.992188 232.589844 C 309.164062 233.707031 309.292969 240.71875 305.765625 243.125 C 302.242188 245.53125 288.050781 246.222656 288.050781 246.222656 C 288.050781 246.222656 305.511719 250.351562 306.972656 251.554688 C 308.433594 252.757812 304.992188 254.136719 304.992188 254.136719 C 304.992188 254.136719 240.398438 257.316406 234.035156 257.316406 C 227.667969 257.316406 176.0625 246.652344 174.429688 246.050781 C 172.792969 245.445312 172.449219 243.640625 172.449219 243.640625 C 172.449219 243.640625 171.933594 244.585938 169.007812 244.929688 C 166.085938 245.273438 162.300781 244.5 160.148438 243.726562 C 158 242.953125 155.9375 239.683594 155.9375 239.683594 C 155.9375 239.683594 154.300781 241.0625 153.097656 241.0625 C 151.890625 241.0625 90.824219 229.105469 89.707031 228.847656 C 88.589844 228.589844 88.160156 227.558594 88.160156 227.558594 C 88.160156 227.558594 86.996094 228.246094 84.847656 228.246094 C 82.699219 228.246094 80.847656 227.601562 80.289062 227.257812 C 79.730469 226.914062 79.042969 225.449219 79.042969 225.449219 C 79.042969 225.449219 66.570312 223.515625 65.320312 222.828125 C 64.078125 222.136719 70.269531 221.75 70.269531 221.75 C 70.269531 221.75 61.882812 217.792969 62.226562 217.238281 C 62.570312 216.675781 76.847656 218.308594 76.847656 218.308594 L 76.976562 213.792969 C 76.976562 213.792969 76.246094 205.109375 77.707031 202.957031 C 79.171875 200.808594 83.644531 199.820312 86.652344 203.300781 C 89.664062 206.785156 91.511719 221.707031 91.511719 221.707031 L 151.289062 230.695312 C 151.289062 230.695312 147.507812 207.730469 155.421875 204.207031 C 163.332031 200.679688 169.523438 205.152344 173.480469 213.496094 C 177.4375 221.835938 178.210938 235.339844 178.210938 235.339844 L 220.832031 241.527344 C 220.832031 241.527344 221.714844 217.234375 219.628906 193.71875 C 214.820312 193.738281 205.933594 193.808594 203.332031 194.054688 C 199.707031 194.398438 198.273438 193.625 198.273438 193.625 L 198.066406 166.875 C 198.066406 166.875 197.832031 163.949219 199.320312 163.261719 C 200.40625 162.757812 209.03125 161.15625 213.589844 160.324219 C 213.152344 158.726562 212.71875 157.167969 212.28125 155.664062 C 208.964844 156.269531 202.6875 157.40625 194.554688 158.855469 Z M 194.472656 142.242188 C 194.523438 142.371094 194.554688 142.515625 194.554688 142.664062 L 194.554688 148.691406 L 209.101562 145.449219 C 208.355469 143.261719 207.613281 141.226562 206.875 139.347656 C 204.253906 139.964844 199.957031 140.96875 194.472656 142.242188 Z M 79.902344 191.820312 L 186.382812 184.425781 C 186.382812 184.425781 189.230469 189.753906 186.050781 191.390625 C 182.871094 193.023438 80.675781 195 79.902344 191.820312 Z M 81.753906 206.785156 C 83.339844 206.785156 84.632812 210.945312 84.632812 216.074219 C 84.632812 221.203125 83.339844 225.363281 81.753906 225.363281 C 80.160156 225.363281 78.871094 221.203125 78.871094 216.074219 C 78.871094 210.945312 80.160156 206.785156 81.753906 206.785156 Z M 163.160156 209.023438 C 166.4375 209.023438 169.09375 215.609375 169.09375 223.730469 C 169.09375 231.855469 166.4375 238.4375 163.160156 238.4375 C 159.882812 238.4375 157.226562 231.855469 157.226562 223.730469 C 157.226562 215.609375 159.882812 209.023438 163.160156 209.023438 Z M 227.109375 118.195312 C 227.109375 118.195312 248.179688 118.539062 253.085938 121.980469 C 257.984375 125.417969 258.675781 147.695312 258.675781 147.695312 C 258.675781 147.695312 252.65625 149.117188 249.644531 146.625 C 248.074219 145.320312 247.25 139.886719 246.285156 134.289062 C 245.402344 129.164062 244.3125 123.785156 244.3125 123.785156 C 244.3125 123.785156 229.519531 123.097656 227.109375 118.195312 Z M 241.886719 128.429688 L 242.386719 132.128906 C 242.386719 132.128906 237.476562 131.914062 236.554688 130.925781 C 236.136719 130.472656 235.601562 129.785156 236.894531 129.308594 C 238.433594 128.746094 241.886719 128.429688 241.886719 128.429688 Z M 243.382812 137.890625 L 243.882812 141.589844 C 243.882812 141.589844 238.972656 141.375 238.050781 140.386719 C 237.632812 139.933594 237.097656 139.246094 238.390625 138.769531 C 239.925781 138.207031 243.382812 137.890625 243.382812 137.890625 Z M 243.382812 137.890625 " fill-opacity="1" fill-rule="evenodd"/></g><g clip-path="url(#d8bf8c290a)"><g clip-path="url(#4304d59e11)"><g clip-path="url(#cb91e11e19)"><g clip-path="url(#b4c3b3f311)"><path fill="#f4b536" d="M 66.75 180.03125 C 64.117188 167.359375 66.121094 153.152344 73.578125 142.359375 C 80.652344 132.140625 92.214844 126.460938 104.109375 125.453125 C 105.863281 125.3125 107.601562 125.214844 109.359375 125.226562 C 109.511719 125.21875 110.421875 125.242188 110.003906 125.222656 C 110.441406 125.25 110.886719 125.253906 111.3125 125.300781 C 112.183594 125.355469 113.0625 125.4375 113.925781 125.558594 C 115.660156 125.785156 117.386719 126.082031 119.066406 126.480469 C 119.851562 126.667969 120.648438 126.882812 121.433594 127.121094 C 121.953125 127.285156 121.003906 126.972656 121.535156 127.167969 C 121.75 127.242188 121.941406 127.304688 122.15625 127.378906 C 122.808594 127.582031 123.421875 127.710938 124.089844 127.820312 C 125.582031 128.035156 127.0625 127.144531 127.484375 125.691406 C 127.929688 124.125 127.214844 122.820312 125.867188 122.027344 C 124.335938 121.09375 122.484375 120.691406 120.742188 120.261719 C 119.152344 119.878906 117.539062 119.558594 115.921875 119.339844 C 112.554688 118.886719 109.136719 118.757812 105.757812 118.972656 C 99.21875 119.351562 92.585938 121.238281 86.78125 124.230469 C 80.652344 127.394531 75.273438 131.785156 71.144531 137.34375 C 66.84375 143.175781 63.855469 149.8125 62.332031 156.898438 C 60.609375 164.894531 60.84375 173.0625 62.980469 180.9375 C 63.566406 183.007812 67.191406 182.207031 66.75 180.03125 Z M 66.75 180.03125 " fill-opacity="1" fill-rule="nonzero"/></g></g></g></g><g clip-path="url(#54856b9022)"><g clip-path="url(#395dcea50f)"><g clip-path="url(#36c3a60787)"><g clip-path="url(#65926df1c7)"><path fill="#f4b536" d="M 87.203125 107.523438 C 84.070312 94.695312 80.867188 81.859375 77.421875 69.113281 C 76.796875 66.804688 72.84375 67.675781 73.308594 70.0625 C 75.914062 83.222656 79.59375 96.101562 83.273438 108.984375 C 83.589844 110.078125 84.9375 110.597656 85.957031 110.21875 C 87.097656 109.796875 87.457031 108.640625 87.203125 107.523438 Z M 87.203125 107.523438 " fill-opacity="1" fill-rule="nonzero"/></g></g></g></g><g clip-path="url(#d316f2c2cf)"><g clip-path="url(#b8beb2b094)"><g clip-path="url(#397ce3d28e)"><g clip-path="url(#f73fe9f051)"><path fill="#f4b536" d="M 66.132812 117.382812 C 59.0625 109.707031 51.734375 102.257812 44.484375 94.75 C 42.484375 92.675781 40.394531 90.742188 38.175781 88.867188 C 36.527344 87.484375 33.996094 89.6875 35.339844 91.457031 C 38.296875 95.339844 41.644531 98.757812 45.070312 102.207031 C 48.394531 105.5625 51.699219 108.910156 55.035156 112.242188 C 57.824219 115.027344 60.617188 117.8125 63.390625 120.636719 C 64.183594 121.453125 65.667969 121.191406 66.363281 120.386719 C 67.191406 119.394531 66.90625 118.238281 66.132812 117.382812 Z M 66.132812 117.382812 " fill-opacity="1" fill-rule="nonzero"/></g></g></g></g><g clip-path="url(#5e5c222b2d)"><g clip-path="url(#e2671d79db)"><g clip-path="url(#cc436aab22)"><g clip-path="url(#918742594a)"><path fill="#f4b536" d="M 53.777344 137.503906 C 48.289062 135.121094 42.820312 132.703125 37.390625 130.25 C 34.738281 129.050781 32.082031 127.851562 29.421875 126.675781 C 26.605469 125.453125 23.742188 124.382812 20.890625 123.242188 C 18.617188 122.34375 17.195312 125.484375 19.292969 126.652344 C 21.894531 128.125 24.507812 129.628906 27.191406 130.914062 C 29.871094 132.222656 32.605469 133.460938 35.328125 134.667969 C 40.796875 137.085938 46.324219 139.386719 51.859375 141.609375 C 54.558594 142.707031 56.46875 138.667969 53.777344 137.503906 Z M 53.777344 137.503906 " fill-opacity="1" fill-rule="nonzero"/></g></g></g></g><g clip-path="url(#8adae3cb08)"><g clip-path="url(#35bbdb8379)"><g clip-path="url(#319ecad6cc)"><g clip-path="url(#fbe74bc4d1)"><path fill="#f4b536" d="M 112.855469 105.667969 C 114.289062 98.789062 115.722656 92.011719 116.453125 85.03125 C 116.601562 83.578125 114.3125 82.621094 113.800781 84.210938 C 111.640625 91.050781 110.210938 97.984375 108.773438 104.984375 C 108.234375 107.605469 112.308594 108.261719 112.855469 105.667969 Z M 112.855469 105.667969 " fill-opacity="1" fill-rule="nonzero"/></g></g></g></g><g clip-path="url(#f34d5cde26)"><g clip-path="url(#e92abbdd34)"><g clip-path="url(#7bdfb5ff87)"><g clip-path="url(#1145227164)"><path fill="#f4b536" d="M 46.214844 157.359375 C 39.242188 157.390625 32.328125 157.398438 25.378906 158.140625 C 23.859375 158.3125 23.648438 160.761719 25.289062 160.921875 C 32.40625 161.605469 39.46875 161.539062 46.601562 161.480469 C 47.722656 161.472656 48.554688 160.261719 48.464844 159.21875 C 48.347656 158.015625 47.335938 157.351562 46.214844 157.359375 Z M 46.214844 157.359375 " fill-opacity="1" fill-rule="nonzero"/></g></g></g></g></svg>